<?xml version="1.0" encoding="UTF-8" standalone="no"?>
<svg
   xmlns:dc="http://purl.org/dc/elements/1.1/"
   xmlns:cc="http://creativecommons.org/ns#"
   xmlns:rdf="http://www.w3.org/1999/02/22-rdf-syntax-ns#"
   xmlns:svg="http://www.w3.org/2000/svg"
   xmlns="http://www.w3.org/2000/svg"
   xmlns:sodipodi="http://sodipodi.sourceforge.net/DTD/sodipodi-0.dtd"
   xmlns:inkscape="http://www.inkscape.org/namespaces/inkscape"
   version="1.1"
   x="0px"
   y="0px"
   viewBox="0 0 100 100"
   enable-background="new 0 0 100 100"
   xml:space="preserve"
   id="svg2"
   inkscape:version="0.91 r13725"
   sodipodi:docname="Logo_Share_Knowledge_White.svg"
   width="100"
   height="100"><metadata
     id="metadata24"><rdf:RDF><cc:Work
         rdf:about=""><dc:format>image/svg+xml</dc:format><dc:type
           rdf:resource="http://purl.org/dc/dcmitype/StillImage" /><dc:title /></cc:Work></rdf:RDF></metadata><defs
     id="defs22" /><sodipodi:namedview
     pagecolor="#ffffff"
     bordercolor="#666666"
     borderopacity="1"
     objecttolerance="10"
     gridtolerance="10"
     guidetolerance="10"
     inkscape:pageopacity="0"
     inkscape:pageshadow="2"
     inkscape:window-width="1280"
     inkscape:window-height="657"
     id="namedview20"
     showgrid="false"
     showguides="true"
     inkscape:guide-bbox="true"
     inkscape:zoom="5.3400704"
     inkscape:cx="40.721935"
     inkscape:cy="45.369498"
     inkscape:window-x="-8"
     inkscape:window-y="1072"
     inkscape:window-maximized="1"
     inkscape:current-layer="svg2"><sodipodi:guide
       position="-47.139831,86.069915"
       orientation="0,1"
       id="guide4178" /><sodipodi:guide
       position="-47.669492,13.506356"
       orientation="0,1"
       id="guide4198" /><sodipodi:guide
       position="3.5580055,105.24206"
       orientation="1,0"
       id="guide4200" /><sodipodi:guide
       position="96.440676,100.935"
       orientation="1,0"
       id="guide4202" /></sodipodi:namedview><path
     style="fill:#ffffff;stroke:#ffffff;stroke-width:15.23977089;stroke-miterlimit:4;stroke-dasharray:none;stroke-opacity:0"
     d="M 81.964844 52.228516 C 81.527515 52.216016 81.108725 52.370821 80.707031 52.525391 C 79.953158 52.831753 79.238995 53.224788 78.542969 53.644531 C 78.19542 53.857874 77.844604 54.073687 77.541016 54.347656 C 76.384061 55.351432 75.260411 56.391822 74.128906 57.423828 C 72.52337 58.903423 70.919171 60.384405 69.326172 61.876953 L 69.957031 62.277344 L 70.947266 63.150391 L 71.503906 63.783203 L 71.787109 64.320312 L 71.9375 64.798828 L 71.966797 65.373047 L 71.888672 66.046875 L 71.736328 66.753906 L 71.486328 67.482422 L 71.193359 68.146484 L 70.65625 68.816406 L 70.050781 69.345703 L 69.357422 69.890625 L 68.423828 70.431641 L 67.453125 70.917969 L 66.417969 71.3125 L 65.599609 71.515625 L 64.306641 71.613281 L 58.466797 71.824219 L 48.046875 72.175781 L 41.701172 72.316406 L 41.695312 72.099609 C 41.690114 72.099869 41.684886 72.099346 41.679688 72.099609 C 41.678762 72.011719 41.676681 71.922942 41.675781 71.835938 C 41.680335 71.835834 41.684899 71.836041 41.689453 71.835938 L 41.677734 71.316406 L 48.019531 71.175781 L 58.431641 70.826172 L 64.25 70.615234 L 65.439453 70.525391 L 66.117188 70.355469 L 67.048828 70 L 67.949219 69.550781 L 68.794922 69.060547 L 69.412109 68.576172 L 69.931641 68.123047 L 70.330078 67.623047 L 70.552734 67.117188 L 70.771484 66.486328 L 70.900391 65.882812 L 70.962891 65.339844 L 70.945312 64.976562 L 70.859375 64.707031 L 70.675781 64.355469 L 70.238281 63.859375 L 69.355469 63.080078 L 68.496094 62.533203 L 68.5 62.527344 C 67.907636 62.313826 67.302846 62.135125 66.693359 61.980469 C 65.586845 61.712519 64.455674 61.511107 63.314453 61.5 C 62.666094 61.4908 62.017498 61.459904 61.369141 61.458984 C 60.563435 61.783396 59.681754 61.832785 58.824219 61.873047 C 58.329503 61.876747 57.835586 61.880886 57.341797 61.847656 C 54.771964 62.03971 52.187482 62.052817 49.617188 61.859375 C 47.605935 61.696938 45.596595 61.409114 43.654297 60.849609 C 42.869881 60.620533 42.097208 60.345542 41.353516 60.005859 C 39.036826 58.987276 36.72959 57.938972 34.365234 57.035156 C 32.446537 56.300258 30.453491 55.761134 28.421875 55.449219 C 26.008004 55.071124 23.553995 54.928341 21.113281 55.072266 C 18.064473 55.258305 15.004736 55.909507 12.263672 57.289062 C 11.372813 57.728705 10.544773 58.278448 9.7089844 58.8125 C 8.1794924 59.806094 6.6612343 60.825308 5.2539062 61.988281 C 4.6467333 62.485772 4.0858614 63.036091 3.5527344 63.611328 C 7.7816434 69.484503 12.012397 75.355396 16.251953 81.220703 C 18.121126 80.599648 20.013089 80.034147 21.943359 79.634766 C 22.705101 79.488996 23.47745 79.354176 24.255859 79.375 C 24.66449 79.39349 25.05848 79.512249 25.455078 79.601562 C 27.468174 80.109234 29.466081 80.675793 31.464844 81.234375 C 35.45125 82.354774 39.428579 83.501934 43.414062 84.626953 C 44.381741 84.896294 45.348108 85.17465 46.322266 85.419922 C 47.552804 85.700373 48.813903 85.919593 50.080078 85.833984 C 50.808034 85.771934 51.551645 85.612324 52.169922 85.205078 C 53.167693 84.581692 54.132855 83.907936 55.099609 83.238281 C 57.998017 81.21083 60.860251 79.13116 63.703125 77.027344 C 65.277504 75.859743 66.845802 74.68262 68.398438 73.486328 C 69.691023 72.485792 70.983583 71.485867 72.21875 70.414062 C 72.92727 69.809206 73.519883 69.08588 74.128906 68.384766 C 75.907379 66.281882 77.617742 64.12363 79.302734 61.945312 C 80.453212 60.452838 81.589418 58.948392 82.689453 57.417969 C 83.392419 56.432242 84.095381 55.443243 84.71875 54.404297 C 84.899234 54.089603 85.093918 53.774414 85.185547 53.419922 C 84.898623 52.977038 84.522193 52.585597 84.074219 52.304688 C 83.373104 52.239897 82.668738 52.222496 81.964844 52.228516 z "
     id="path4237" /><path
     style="fill:#ffffff"
     d="M 51.435832,14.622939 6.2330953,30.957299 51.42047,45.188894 96.579043,30.96114 Z m 0.326456,5.589104 1.474817,0 c 0.282798,0 0.424394,0.109207 0.424394,0.328378 l 0,15.693024 c 0,0.647071 0.120545,1.107446 0.362943,1.378799 0.242399,0.271353 0.69971,0.426814 1.373039,0.468561 0.363597,0.03131 0.545375,0.167068 0.545375,0.407111 l 0,0.892956 c 0,0.208733 -0.133939,0.313015 -0.403271,0.313015 l -8.080765,0 c -0.323196,0 -0.483924,-0.109208 -0.483924,-0.328378 l 0,-0.798859 c 0,-0.281789 0.24301,-0.458876 0.727806,-0.531931 0.605997,-0.08349 1.042258,-0.250729 1.311588,-0.501209 0.282798,-0.250479 0.424396,-0.689229 0.424396,-1.315428 l 0,-12.84325 -2.726875,0 c -0.242399,0 -0.362944,-0.0895 -0.362944,-0.266926 l 0,-0.860308 c 0,-0.187861 0.107151,-0.323619 0.322617,-0.407111 l 4.080709,-1.409526 c 0.403997,-0.146113 0.740764,-0.218918 1.010095,-0.218918 z"
     id="rect4144"
     inkscape:connector-curvature="0"
     sodipodi:nodetypes="cccccssssscssssssccscsssccs" /><path
     style="fill:#ffffff"
     d="M 78.117249,37.992697 51.399848,46.426362 24.71688,38.026705 24.70998,50.265631 c 9.434068,0.567788 18.51489,3.16231 26.685685,8.474626 8.044991,-5.312316 18.941978,-8.166293 26.684635,-8.470702 z"
     id="rect4158"
     inkscape:connector-curvature="0"
     sodipodi:nodetypes="ccccccc" /></svg>