<?xml version="1.0" encoding="UTF-8" standalone="no"?>
<svg xmlns:dc="http://purl.org/dc/elements/1.1/" xmlns:cc="http://creativecommons.org/ns#" xmlns:rdf="http://www.w3.org/1999/02/22-rdf-syntax-ns#" xmlns:svg="http://www.w3.org/2000/svg" xmlns="http://www.w3.org/2000/svg" xmlns:xlink="http://www.w3.org/1999/xlink" xmlns:sodipodi="http://sodipodi.sourceforge.net/DTD/sodipodi-0.dtd" xmlns:inkscape="http://www.inkscape.org/namespaces/inkscape" width="700" height="700" id="svg1" version="1.1" inkscape:version="0.48.2 r9819" sodipodi:docname="???1.svg">
	<g>
		
			<path fill="none" stroke="#ff9600" stroke-width="11.5531" stroke-linecap="round" stroke-linejoin="round" stroke-miterlimit="10" d="
			M16.117,445.247c76.373,36.071,187.741-59.56,274.39,14.12l0,0c0,0,7.461,2.744,14.076,2.744c7.041,0,14.813-2.744,14.813-2.744
			l0,0v-0.02c86.738-73.636,197.971,22.063,274.394-13.978"/>
	</g>
	<path fill="none" stroke="#ff9600" stroke-width="5.7766" stroke-linecap="round" stroke-linejoin="round" stroke-miterlimit="10" d="
		M317.858,454.646c0,0-5.789,6.56-12.85,6.56c-7.053,0-12.691-6.56-12.691-6.56s9.411-5.408,12.988-5.412
		C308.896,449.227,317.858,454.646,317.858,454.646z"/>
	<g>
		<g>
			
				<path fill="none" stroke="#ff9600" stroke-width="0.7221" stroke-linecap="round" stroke-linejoin="round" stroke-miterlimit="10" d="
				M304.826,449.15c25.627-122.494,177.073-98.685,202.375-171.563"/>
			
				<path fill="none" stroke="#ff9600" stroke-width="0.7221" stroke-linecap="round" stroke-linejoin="round" stroke-miterlimit="10" d="
				M305.403,449.532c0.001-0.005,0.003-0.012,0.004-0.017c27.989-120.596,177.875-94.028,205.141-165.485"/>
			
				<path fill="none" stroke="#ff9600" stroke-width="0.7221" stroke-linecap="round" stroke-linejoin="round" stroke-miterlimit="10" d="
				M305.98,449.914c0.001-0.006,0.002-0.012,0.004-0.018c30.339-118.717,178.68-89.384,207.911-159.424"/>
			
				<path fill="none" stroke="#ff9600" stroke-width="0.7221" stroke-linecap="round" stroke-linejoin="round" stroke-miterlimit="10" d="
				M306.557,450.295c0.001-0.004,0.003-0.012,0.004-0.017c32.689-116.839,179.484-84.741,210.682-153.364"/>
			
				<path fill="none" stroke="#ff9600" stroke-width="0.7221" stroke-linecap="round" stroke-linejoin="round" stroke-miterlimit="10" d="
				M307.135,450.678c0.002-0.005,0.002-0.013,0.004-0.018c35.039-114.96,180.287-80.097,213.453-147.303"/>
			
				<path fill="none" stroke="#ff9600" stroke-width="0.7221" stroke-linecap="round" stroke-linejoin="round" stroke-miterlimit="10" d="
				M307.713,451.06c0-0.005,0.002-0.013,0.003-0.017c37.39-113.083,181.093-75.454,216.224-141.243"/>
			
				<path fill="none" stroke="#ff9600" stroke-width="0.7221" stroke-linecap="round" stroke-linejoin="round" stroke-miterlimit="10" d="
				M308.289,451.441c0.002-0.004,0.002-0.013,0.004-0.018c39.739-111.203,181.896-70.81,218.994-135.182"/>
			
				<path fill="none" stroke="#ff9600" stroke-width="0.7221" stroke-linecap="round" stroke-linejoin="round" stroke-miterlimit="10" d="
				M308.867,451.823c0.001-0.005,0.002-0.013,0.003-0.017c42.089-109.326,182.7-66.168,221.765-129.122"/>
			
				<path fill="none" stroke="#ff9600" stroke-width="0.7221" stroke-linecap="round" stroke-linejoin="round" stroke-miterlimit="10" d="
				M309.444,452.205c0.001-0.004,0.002-0.013,0.003-0.018c44.439-107.447,183.505-61.523,224.535-123.061"/>
			
				<path fill="none" stroke="#ff9600" stroke-width="0.7221" stroke-linecap="round" stroke-linejoin="round" stroke-miterlimit="10" d="
				M310.021,452.587c0.001-0.003,0.002-0.013,0.003-0.017c46.79-105.569,184.31-56.88,227.306-117"/>
			
				<path fill="none" stroke="#ff9600" stroke-width="0.7221" stroke-linecap="round" stroke-linejoin="round" stroke-miterlimit="10" d="
				M310.599,452.969c0.001-0.004,0.002-0.014,0.003-0.018c49.14-103.689,185.113-52.236,230.076-110.939"/>
			
				<path fill="none" stroke="#ff9600" stroke-width="0.7221" stroke-linecap="round" stroke-linejoin="round" stroke-miterlimit="10" d="
				M311.176,453.351c0.001-0.003,0.002-0.014,0.003-0.017c51.489-101.813,185.918-47.594,232.847-104.88"/>
			
				<path fill="none" stroke="#ff9600" stroke-width="0.7221" stroke-linecap="round" stroke-linejoin="round" stroke-miterlimit="10" d="
				M311.754,453.732c0-0.004,0.001-0.014,0.002-0.017c53.84-99.934,186.723-42.95,235.617-98.819"/>
			
				<path fill="none" stroke="#ff9600" stroke-width="0.7221" stroke-linecap="round" stroke-linejoin="round" stroke-miterlimit="10" d="
				M312.331,454.114c0.001-0.003,0.001-0.014,0.002-0.017c56.19-98.055,187.526-38.307,238.388-92.758"/>
			
				<path fill="none" stroke="#ff9600" stroke-width="0.7221" stroke-linecap="round" stroke-linejoin="round" stroke-miterlimit="10" d="
				M312.908,454.496c0.001-0.003,0.002-0.014,0.002-0.017c58.541-96.177,188.331-33.663,241.158-86.697"/>
			
				<path fill="none" stroke="#ff9600" stroke-width="0.7221" stroke-linecap="round" stroke-linejoin="round" stroke-miterlimit="10" d="
				M313.485,454.878c0.001-0.002,0.001-0.015,0.002-0.017c60.891-94.299,189.136-29.02,243.929-80.637"/>
			
				<path fill="none" stroke="#ff9600" stroke-width="0.7221" stroke-linecap="round" stroke-linejoin="round" stroke-miterlimit="10" d="
				M314.063,455.26c0.001-0.002,0.002-0.014,0.002-0.017c63.24-92.42,189.939-24.376,246.7-74.576"/>
			
				<path fill="none" stroke="#ff9600" stroke-width="0.7221" stroke-linecap="round" stroke-linejoin="round" stroke-miterlimit="10" d="
				M314.64,455.642c0.001-0.002,0.001-0.015,0.002-0.017c65.591-90.542,190.744-19.732,249.471-68.516"/>
			
				<path fill="none" stroke="#ff9600" stroke-width="0.7221" stroke-linecap="round" stroke-linejoin="round" stroke-miterlimit="10" d="
				M315.218,456.023c0-0.002,0.001-0.015,0.001-0.017c67.941-88.663,191.549-15.089,252.241-62.455"/>
			
				<path fill="none" stroke="#ff9600" stroke-width="0.7221" stroke-linecap="round" stroke-linejoin="round" stroke-miterlimit="10" d="
				M315.795,456.405c0-0.002,0-0.015,0.001-0.016c70.291-86.786,192.353-10.447,255.012-56.396"/>
			
				<path fill="none" stroke="#ff9600" stroke-width="0.7221" stroke-linecap="round" stroke-linejoin="round" stroke-miterlimit="10" d="
				M316.372,456.787c0-0.001,0.001-0.015,0.001-0.017c72.642-84.907,193.157-5.802,257.782-50.334"/>
			
				<path fill="none" stroke="#ff9600" stroke-width="0.7221" stroke-linecap="round" stroke-linejoin="round" stroke-miterlimit="10" d="
				M316.949,457.169c0-0.001,0-0.015,0.001-0.016c74.991-83.029,193.962-1.159,260.553-44.274"/>
			
				<path fill="none" stroke="#ff9600" stroke-width="0.7221" stroke-linecap="round" stroke-linejoin="round" stroke-miterlimit="10" d="
				M317.526,457.551c0.001-0.001,0.001-0.015,0.001-0.016c77.342-81.151,194.766,3.484,263.324-38.214"/>
			
				<path fill="none" stroke="#ff9600" stroke-width="0.7221" stroke-linecap="round" stroke-linejoin="round" stroke-miterlimit="10" d="
				M318.104,457.933c0-0.001,0.001-0.016,0.001-0.016c79.692-79.272,195.57,8.127,266.095-32.152"/>
			
				<path fill="none" stroke="#ff9600" stroke-width="0.7221" stroke-linecap="round" stroke-linejoin="round" stroke-miterlimit="10" d="
				M318.682,458.314c0-0.001,0-0.016,0-0.016c82.042-77.394,196.375,12.771,268.865-26.092"/>
			
				<path fill="none" stroke="#ff9600" stroke-width="0.7221" stroke-linecap="round" stroke-linejoin="round" stroke-miterlimit="10" d="
				M319.259,458.696v-0.016c84.393-75.516,197.179,17.414,271.636-20.031"/>
			
				<path fill="none" stroke="#ff9600" stroke-width="0.7221" stroke-linecap="round" stroke-linejoin="round" stroke-miterlimit="10" d="
				M319.836,459.078v-0.016c86.742-73.637,197.983,22.058,274.406-13.971"/>
		</g>
	</g>
	<path fill="none" stroke="#ff9600" stroke-width="5.4877" stroke-linecap="round" stroke-linejoin="round" stroke-miterlimit="10" d="
		M304.845,449.194c25.637-122.491,177.061-98.681,202.363-171.563"/>
	<g>
		<path fill="#ff9600" d="M294.799,361.781V238.035c0-4.201-0.872-6.303-2.613-6.303c-0.411,0-1.744,0.411-3.997,1.23
			c-7.893,3.074-14.707,4.765-20.445,5.073v-5.227c22.955-12.091,37.098-22.29,42.428-30.591h5.379v159.563
			c0,8.301,1.154,13.682,3.459,16.141c2.307,2.459,7.352,3.689,15.143,3.689v4.766h-57.954v-4.766c7.787,0,12.836-1.28,15.142-3.843
			C293.646,375.208,294.799,369.878,294.799,361.781z"/>
	</g>
	<path fill="none" stroke="#ff9600" stroke-width="5.4877" stroke-linecap="round" stroke-linejoin="round" stroke-miterlimit="10" d="
		M303.4,449.361c-20.597-122.928-176.554-99.384-201.281-172.385"/>
	<g>
		
			<path fill="none" stroke="#ff9600" stroke-width="0.7221" stroke-linecap="round" stroke-linejoin="round" stroke-miterlimit="10" d="
			M15.431,444.774c76.368,36.071,187.732-59.555,274.39,14.125"/>
	</g>
	<path fill="none" stroke="#ff9600" stroke-width="0.7221" stroke-linecap="round" stroke-linejoin="round" stroke-miterlimit="10" d="
		M304.826,449.15c-26.593-123.936-178.016-99.193-202.727-172.194"/>
	<g>
		<g>
			
				<path fill="none" stroke="#ff9600" stroke-width="0.7221" stroke-linecap="round" stroke-linejoin="round" stroke-miterlimit="10" d="
				M304.46,448.515c-25.628-122.49-177.065-98.676-202.361-171.559"/>
			
				<path fill="none" stroke="#ff9600" stroke-width="0.7221" stroke-linecap="round" stroke-linejoin="round" stroke-miterlimit="10" d="
				M303.883,448.897c-0.002-0.01-0.004-0.02-0.006-0.029C275.88,328.289,126.011,354.857,98.751,283.399"/>
			
				<path fill="none" stroke="#ff9600" stroke-width="0.7221" stroke-linecap="round" stroke-linejoin="round" stroke-miterlimit="10" d="
				M303.306,449.279c-0.001-0.009-0.003-0.02-0.005-0.029c-30.347-118.701-178.671-89.367-207.897-159.41"/>
			
				<path fill="none" stroke="#ff9600" stroke-width="0.7221" stroke-linecap="round" stroke-linejoin="round" stroke-miterlimit="10" d="
				M302.729,449.661c-0.002-0.009-0.003-0.021-0.005-0.028c-32.697-116.824-179.475-84.725-210.668-153.35"/>
			
				<path fill="none" stroke="#ff9600" stroke-width="0.7221" stroke-linecap="round" stroke-linejoin="round" stroke-miterlimit="10" d="
				M302.151,450.044c-0.001-0.009-0.003-0.021-0.005-0.028c-35.046-114.946-180.28-80.083-213.439-147.29"/>
			
				<path fill="none" stroke="#ff9600" stroke-width="0.7221" stroke-linecap="round" stroke-linejoin="round" stroke-miterlimit="10" d="
				M301.575,450.426c-0.001-0.008-0.003-0.02-0.005-0.027c-37.396-113.068-181.084-75.44-216.211-141.23"/>
			
				<path fill="none" stroke="#ff9600" stroke-width="0.7221" stroke-linecap="round" stroke-linejoin="round" stroke-miterlimit="10" d="
				M300.997,450.809c-0.001-0.008-0.003-0.021-0.005-0.028c-39.745-111.19-181.889-70.797-218.981-135.17"/>
			
				<path fill="none" stroke="#ff9600" stroke-width="0.7221" stroke-linecap="round" stroke-linejoin="round" stroke-miterlimit="10" d="
				M300.42,451.19c-0.002-0.007-0.003-0.021-0.004-0.027C258.32,341.85,117.722,385.008,78.663,322.052"/>
			
				<path fill="none" stroke="#ff9600" stroke-width="0.7221" stroke-linecap="round" stroke-linejoin="round" stroke-miterlimit="10" d="
				M299.843,451.573c-0.001-0.007-0.003-0.021-0.004-0.028C255.394,344.11,116.34,390.033,75.314,328.495"/>
			
				<path fill="none" stroke="#ff9600" stroke-width="0.7221" stroke-linecap="round" stroke-linejoin="round" stroke-miterlimit="10" d="
				M299.267,451.955c-0.002-0.006-0.003-0.021-0.004-0.027c-46.795-105.557-184.303-56.869-227.296-116.99"/>
			
				<path fill="none" stroke="#ff9600" stroke-width="0.7221" stroke-linecap="round" stroke-linejoin="round" stroke-miterlimit="10" d="
				M298.688,452.338c-0.001-0.006-0.002-0.021-0.003-0.027C249.54,348.631,113.578,400.083,68.618,341.38"/>
			
				<path fill="none" stroke="#ff9600" stroke-width="0.7221" stroke-linecap="round" stroke-linejoin="round" stroke-miterlimit="10" d="
				M298.111,452.72c-0.001-0.006-0.002-0.021-0.003-0.026c-51.495-101.802-185.912-47.585-232.837-104.872"/>
			
				<path fill="none" stroke="#ff9600" stroke-width="0.7221" stroke-linecap="round" stroke-linejoin="round" stroke-miterlimit="10" d="
				M297.534,453.103c-0.001-0.006-0.002-0.022-0.003-0.027c-53.844-99.924-186.717-42.941-235.609-98.811"/>
			
				<path fill="none" stroke="#ff9600" stroke-width="0.7221" stroke-linecap="round" stroke-linejoin="round" stroke-miterlimit="10" d="
				M296.958,453.484c-0.001-0.005-0.002-0.021-0.003-0.026c-56.194-98.046-187.521-38.299-238.38-92.751"/>
			
				<path fill="none" stroke="#ff9600" stroke-width="0.7221" stroke-linecap="round" stroke-linejoin="round" stroke-miterlimit="10" d="
				M296.38,453.867c0-0.005-0.001-0.021-0.002-0.026c-58.543-96.169-188.326-33.657-241.151-86.692"/>
			
				<path fill="none" stroke="#ff9600" stroke-width="0.7221" stroke-linecap="round" stroke-linejoin="round" stroke-miterlimit="10" d="
				M295.803,454.249c-0.001-0.005-0.001-0.021-0.002-0.026c-60.893-94.291-189.13-29.014-243.922-80.632"/>
			
				<path fill="none" stroke="#ff9600" stroke-width="0.7221" stroke-linecap="round" stroke-linejoin="round" stroke-miterlimit="10" d="
				M295.226,454.631c0-0.004-0.001-0.021-0.002-0.025c-63.243-92.413-189.935-24.371-246.693-74.572"/>
			
				<path fill="none" stroke="#ff9600" stroke-width="0.7221" stroke-linecap="round" stroke-linejoin="round" stroke-miterlimit="10" d="
				M294.648,455.014c0-0.004-0.001-0.022-0.002-0.025c-65.593-90.536-190.739-19.729-249.464-68.512"/>
			
				<path fill="none" stroke="#ff9600" stroke-width="0.7221" stroke-linecap="round" stroke-linejoin="round" stroke-miterlimit="10" d="
				M294.072,455.396c0-0.003-0.001-0.022-0.001-0.025c-67.943-88.658-191.545-15.086-252.236-62.452"/>
			
				<path fill="none" stroke="#ff9600" stroke-width="0.7221" stroke-linecap="round" stroke-linejoin="round" stroke-miterlimit="10" d="
				M293.494,455.778c0-0.003-0.001-0.022-0.001-0.025c-70.292-86.78-192.349-10.443-255.007-56.393"/>
			
				<path fill="none" stroke="#ff9600" stroke-width="0.7221" stroke-linecap="round" stroke-linejoin="round" stroke-miterlimit="10" d="
				M292.917,456.16c0-0.002-0.001-0.022-0.001-0.024c-72.643-84.902-193.153-5.801-257.778-50.333"/>
			
				<path fill="none" stroke="#ff9600" stroke-width="0.7221" stroke-linecap="round" stroke-linejoin="round" stroke-miterlimit="10" d="
				M292.34,456.543c0-0.002,0-0.022-0.001-0.024c-74.992-83.025-193.958-1.158-260.549-44.273"/>
			
				<path fill="none" stroke="#ff9600" stroke-width="0.7221" stroke-linecap="round" stroke-linejoin="round" stroke-miterlimit="10" d="
				M291.763,456.925c0-0.001,0-0.022,0-0.024C214.42,375.754,97,460.385,28.441,418.688"/>
			
				<path fill="none" stroke="#ff9600" stroke-width="0.7221" stroke-linecap="round" stroke-linejoin="round" stroke-miterlimit="10" d="
				M291.186,457.308c0-0.001,0-0.023,0-0.024c-79.692-79.27-195.567,8.127-266.092-32.153"/>
			
				<path fill="none" stroke="#ff9600" stroke-width="0.7221" stroke-linecap="round" stroke-linejoin="round" stroke-miterlimit="10" d="
				M290.609,457.689c0,0,0-0.023,0-0.024c-82.042-77.391-196.372,12.771-268.863-26.093"/>
			
				<path fill="none" stroke="#ff9600" stroke-width="0.7221" stroke-linecap="round" stroke-linejoin="round" stroke-miterlimit="10" d="
				M290.032,458.071c0,0,0-0.022,0-0.023c-84.391-75.514-197.177,17.412-271.634-20.033"/>
			
				<path fill="none" stroke="#ff9600" stroke-width="0.7221" stroke-linecap="round" stroke-linejoin="round" stroke-miterlimit="10" d="
				M289.455,458.454v-0.023c-86.741-73.636-197.981,22.055-274.405-13.974"/>
		</g>
	</g>
	<g>
		<path fill="#ff9600" d="M32.222,529.078l22.958-11.201h2.296v79.659c0,5.288,0.22,8.581,0.661,9.88
			c0.44,1.299,1.356,2.296,2.748,2.991c1.391,0.695,4.22,1.09,8.488,1.183v2.574H33.892v-2.574c4.453-0.093,7.328-0.475,8.627-1.147
			c1.298-0.672,2.203-1.576,2.713-2.714c0.51-1.136,0.765-4.533,0.765-10.192V546.61c0-6.864-0.232-11.271-0.695-13.219
			c-0.325-1.484-0.917-2.574-1.774-3.271c-0.858-0.695-1.89-1.043-3.096-1.043c-1.716,0-4.105,0.72-7.166,2.156L32.222,529.078z"/>
		<path fill="#ff9600" d="M129.344,561.846l34.786,34.577c5.705,5.705,10.575,9.591,14.61,11.653
			c4.035,2.064,8.07,3.235,12.105,3.514v2.574h-44.874v-2.574c2.689,0,4.626-0.452,5.809-1.356s1.774-1.913,1.774-3.026
			s-0.22-2.11-0.661-2.992c-0.441-0.88-1.891-2.527-4.348-4.939l-32.56-32.211v30.402c0,4.777,0.301,7.932,0.904,9.462
			c0.463,1.16,1.437,2.156,2.922,2.991c1.994,1.113,4.105,1.67,6.331,1.67h3.2v2.574H89.131v-2.574h3.34
			c3.896,0,6.724-1.136,8.487-3.409c1.113-1.483,1.67-5.055,1.67-10.714v-60.944c0-4.777-0.302-7.954-0.904-9.531
			c-0.464-1.113-1.416-2.088-2.853-2.923c-2.042-1.112-4.174-1.669-6.4-1.669h-3.34v-2.574h40.212v2.574h-3.2
			c-2.181,0-4.291,0.533-6.331,1.6c-1.438,0.742-2.435,1.855-2.991,3.34c-0.557,1.484-0.835,4.546-0.835,9.184v28.872
			c0.927-0.881,4.104-3.826,9.531-8.836c13.775-12.615,22.1-21.033,24.976-25.255c1.252-1.854,1.878-3.479,1.878-4.869
			c0-1.066-0.487-2.006-1.461-2.818c-0.974-0.811-2.621-1.217-4.939-1.217h-2.157v-2.574h34.646v2.574
			c-2.042,0.046-3.896,0.324-5.565,0.834c-1.67,0.512-3.711,1.496-6.123,2.957c-2.412,1.461-5.381,3.815-8.905,7.062
			c-1.021,0.929-5.729,5.683-14.123,14.263L129.344,561.846z"/>
		<path fill="#ff9600" d="M212.691,562.055c7.467-8.997,14.586-13.497,21.358-13.497c3.479,0,6.47,0.87,8.975,2.609
			c2.505,1.739,4.499,4.604,5.983,8.592c1.02,2.783,1.53,7.051,1.53,12.802v27.202c0,4.035,0.324,6.772,0.974,8.21
			c0.51,1.159,1.333,2.063,2.47,2.713c1.136,0.65,3.235,0.974,6.296,0.974v2.505h-31.516v-2.505h1.322
			c2.967,0,5.044-0.452,6.227-1.356s2.005-2.237,2.47-4c0.185-0.696,0.278-2.876,0.278-6.54v-26.089
			c0-5.798-0.754-10.007-2.261-12.628c-1.508-2.619-4.047-3.931-7.618-3.931c-5.52,0-11.016,3.016-16.488,9.044v33.604
			c0,4.313,0.254,6.981,0.765,8.001c0.649,1.346,1.542,2.33,2.679,2.957c1.136,0.626,3.444,0.938,6.922,0.938v2.505h-31.516v-2.505
			h1.392c3.246,0,5.438-0.822,6.574-2.47c1.136-1.646,1.705-4.788,1.705-9.427v-23.654c0-7.653-0.174-12.314-0.521-13.984
			c-0.348-1.669-0.882-2.806-1.601-3.408c-0.719-0.603-1.682-0.905-2.887-0.905c-1.299,0-2.852,0.349-4.661,1.044l-1.043-2.505
			l19.202-7.792h2.992V562.055z"/>
		<path fill="#ff9600" d="M296.525,548.558c9.646,0,17.393,3.665,23.237,10.993c4.963,6.261,7.444,13.451,7.444,21.566
			c0,5.705-1.368,11.479-4.104,17.323c-2.737,5.845-6.505,10.251-11.306,13.219c-4.8,2.968-10.146,4.453-16.036,4.453
			c-9.601,0-17.231-3.827-22.889-11.479c-4.778-6.446-7.166-13.682-7.166-21.706c0-5.845,1.449-11.653,4.348-17.428
			c2.898-5.774,6.714-10.042,11.445-12.802C286.229,549.938,291.238,548.558,296.525,548.558z M294.368,553.08
			c-2.459,0-4.929,0.73-7.409,2.191c-2.482,1.461-4.487,4.024-6.018,7.688c-1.531,3.665-2.296,8.373-2.296,14.123
			c0,9.277,1.844,17.278,5.531,24.003c3.688,6.726,8.545,10.088,14.576,10.088c4.498,0,8.209-1.854,11.131-5.566
			c2.922-3.71,4.383-10.088,4.383-19.132c0-11.316-2.435-20.222-7.305-26.716C303.667,555.307,299.47,553.08,294.368,553.08z"/>
		<path fill="#ff9600" d="M358.513,515.233v84.529c0,3.989,0.29,6.633,0.87,7.932c0.579,1.299,1.472,2.284,2.679,2.956
			c1.205,0.673,3.454,1.009,6.748,1.009v2.505h-31.237v-2.505c2.922,0,4.915-0.301,5.983-0.904c1.066-0.603,1.9-1.6,2.504-2.991
			c0.603-1.392,0.904-4.059,0.904-8.001v-57.884c0-7.188-0.163-11.606-0.486-13.253c-0.325-1.646-0.847-2.771-1.565-3.375
			c-0.72-0.602-1.635-0.904-2.748-0.904c-1.207,0-2.737,0.372-4.592,1.113l-1.183-2.435l18.993-7.792H358.513z"/>
		<path fill="#ff9600" d="M389.542,600.667c2.18,0,4.011,0.755,5.496,2.262c1.483,1.507,2.227,3.328,2.227,5.461
			c0,2.134-0.755,3.955-2.262,5.461c-1.508,1.507-3.328,2.262-5.461,2.262c-2.134,0-3.955-0.755-5.462-2.262
			c-1.508-1.506-2.261-3.327-2.261-5.461c0-2.18,0.753-4.012,2.261-5.496C385.587,601.409,387.408,600.667,389.542,600.667z"/>
		<path fill="#ff9600" d="M442.974,548.558c9.646,0,17.393,3.665,23.236,10.993c4.963,6.261,7.444,13.451,7.444,21.566
			c0,5.705-1.368,11.479-4.104,17.323c-2.737,5.845-6.505,10.251-11.306,13.219s-10.146,4.453-16.036,4.453
			c-9.601,0-17.231-3.827-22.889-11.479c-4.778-6.446-7.166-13.682-7.166-21.706c0-5.845,1.448-11.653,4.348-17.428
			c2.898-5.774,6.714-10.042,11.444-12.802C432.677,549.938,437.686,548.558,442.974,548.558z M440.816,553.08
			c-2.459,0-4.929,0.73-7.409,2.191c-2.481,1.461-4.487,4.024-6.018,7.688c-1.531,3.665-2.296,8.373-2.296,14.123
			c0,9.277,1.843,17.278,5.53,24.003c3.688,6.726,8.546,10.088,14.575,10.088c4.499,0,8.21-1.854,11.132-5.566
			c2.922-3.71,4.383-10.088,4.383-19.132c0-11.316-2.435-20.222-7.305-26.716C450.115,555.307,445.918,553.08,440.816,553.08z"/>
		<path fill="#ff9600" d="M501.691,548.558v14.332c5.333-9.554,10.807-14.332,16.419-14.332c2.551,0,4.661,0.777,6.331,2.331
			c1.67,1.555,2.505,3.352,2.505,5.392c0,1.809-0.604,3.34-1.81,4.592s-2.644,1.879-4.313,1.879c-1.625,0-3.444-0.801-5.462-2.4
			c-2.018-1.601-3.514-2.4-4.487-2.4c-0.835,0-1.739,0.464-2.713,1.392c-2.088,1.902-4.244,5.033-6.471,9.392v30.542
			c0,3.525,0.44,6.192,1.322,8.001c0.602,1.252,1.67,2.296,3.2,3.131s3.732,1.252,6.609,1.252v2.505h-32.629v-2.505
			c3.245,0,5.657-0.51,7.235-1.53c1.158-0.741,1.971-1.924,2.435-3.548c0.231-0.788,0.348-3.037,0.348-6.749v-24.697
			c0-7.421-0.15-11.839-0.452-13.254c-0.302-1.414-0.858-2.445-1.67-3.096c-0.812-0.649-1.82-0.975-3.026-0.975
			c-1.438,0-3.061,0.349-4.869,1.044l-0.696-2.505l19.271-7.792H501.691z"/>
		<path fill="#ff9600" d="M544.966,590.927c-3.896-1.901-6.888-4.557-8.976-7.966c-2.087-3.409-3.13-7.177-3.13-11.305
			c0-6.308,2.376-11.734,7.131-16.28c4.754-4.545,10.841-6.818,18.263-6.818c6.075,0,11.34,1.485,15.792,4.453h13.497
			c1.994,0,3.154,0.059,3.479,0.174c0.324,0.116,0.557,0.313,0.696,0.591c0.278,0.418,0.417,1.16,0.417,2.227
			c0,1.207-0.116,2.042-0.348,2.505c-0.139,0.232-0.383,0.417-0.73,0.557c-0.348,0.139-1.52,0.209-3.514,0.209h-8.278
			c2.597,3.339,3.896,7.606,3.896,12.801c0,5.938-2.272,11.017-6.818,15.236c-4.546,4.221-10.644,6.331-18.297,6.331
			c-3.154,0-6.378-0.463-9.671-1.392c-2.041,1.763-3.421,3.305-4.139,4.627c-0.72,1.321-1.079,2.446-1.079,3.374
			c0,0.789,0.383,1.555,1.148,2.296c0.765,0.742,2.261,1.276,4.487,1.6c1.298,0.187,4.545,0.348,9.74,0.487
			c9.554,0.232,15.746,0.557,18.575,0.974c4.313,0.604,7.758,2.204,10.331,4.801c2.574,2.598,3.861,5.797,3.861,9.601
			c0,5.241-2.459,10.158-7.374,14.749c-7.235,6.771-16.675,10.158-28.315,10.158c-8.952,0-16.513-2.018-22.681-6.053
			c-3.479-2.32-5.218-4.731-5.218-7.235c0-1.113,0.254-2.227,0.765-3.34c0.788-1.717,2.411-4.104,4.87-7.166
			c0.324-0.417,2.689-2.922,7.097-7.514c-2.412-1.438-4.117-2.724-5.113-3.861c-0.998-1.136-1.496-2.423-1.496-3.861
			c0-1.623,0.661-3.524,1.982-5.705C537.139,598.001,540.188,594.917,544.966,590.927z M544.27,614.164
			c-2.181,2.365-3.826,4.567-4.939,6.609c-1.113,2.04-1.67,3.919-1.67,5.635c0,2.227,1.345,4.175,4.035,5.845
			c4.638,2.875,11.341,4.313,20.106,4.313c8.349,0,14.506-1.474,18.472-4.418c3.965-2.946,5.948-6.088,5.948-9.427
			c0-2.412-1.183-4.129-3.549-5.148c-2.412-1.021-7.189-1.624-14.331-1.809C557.905,615.486,549.881,614.952,544.27,614.164z
			 M557.071,551.897c-3.434,0-6.309,1.368-8.627,4.104c-2.32,2.737-3.479,6.935-3.479,12.593c0,7.329,1.576,13.01,4.73,17.045
			c2.411,3.062,5.473,4.592,9.184,4.592c3.524,0,6.423-1.322,8.696-3.966c2.272-2.644,3.409-6.794,3.409-12.453
			c0-7.375-1.601-13.149-4.801-17.323C563.819,553.428,560.781,551.897,557.071,551.897z"/>
	</g>
</svg>
