<?xml version="1.0" encoding="utf-8"?>
<!-- Generator: Adobe Illustrator 16.0.0, SVG Export Plug-In . SVG Version: 6.00 Build 0)  -->
<!DOCTYPE svg PUBLIC "-//W3C//DTD SVG 1.1//EN" "http://www.w3.org/Graphics/SVG/1.1/DTD/svg11.dtd">
<svg version="1.1" id="Layer_1" xmlns="http://www.w3.org/2000/svg" xmlns:xlink="http://www.w3.org/1999/xlink" x="0px" y="0px"
	 width="612px" height="792px" viewBox="0 0 612 792" enable-background="new 0 0 612 792" xml:space="preserve">
<metadata><?xpacket begin="﻿" id="W5M0MpCehiHzreSzNTczkc9d"?>
<x:xmpmeta xmlns:x="adobe:ns:meta/" x:xmptk="Adobe XMP Core 5.3-c011 66.145661, 2012/02/06-14:56:27        ">
   <rdf:RDF xmlns:rdf="http://www.w3.org/1999/02/22-rdf-syntax-ns#">
      <rdf:Description rdf:about=""
            xmlns:xmp="http://ns.adobe.com/xap/1.0/"
            xmlns:xmpGImg="http://ns.adobe.com/xap/1.0/g/img/">
         <xmp:CreatorTool>Adobe Illustrator CS6 (Windows)</xmp:CreatorTool>
         <xmp:ModifyDate>2014-02-01T22:38:25-05:00</xmp:ModifyDate>
         <xmp:CreateDate>2014-02-01T22:38:25-05:00</xmp:CreateDate>
         <xmp:MetadataDate>2014-02-01T22:38:25-05:00</xmp:MetadataDate>
         <xmp:Thumbnails>
            <rdf:Alt>
               <rdf:li rdf:parseType="Resource">
                  <xmpGImg:width>256</xmpGImg:width>
                  <xmpGImg:height>100</xmpGImg:height>
                  <xmpGImg:format>JPEG</xmpGImg:format>
                  <xmpGImg:image>/9j/4AAQSkZJRgABAgEASABIAAD/7QAsUGhvdG9zaG9wIDMuMAA4QklNA+0AAAAAABAASAAAAAEA&#xA;AQBIAAAAAQAB/+4ADkFkb2JlAGTAAAAAAf/bAIQABgQEBAUEBgUFBgkGBQYJCwgGBggLDAoKCwoK&#xA;DBAMDAwMDAwQDA4PEA8ODBMTFBQTExwbGxscHx8fHx8fHx8fHwEHBwcNDA0YEBAYGhURFRofHx8f&#xA;Hx8fHx8fHx8fHx8fHx8fHx8fHx8fHx8fHx8fHx8fHx8fHx8fHx8fHx8fHx8f/8AAEQgAZAEAAwER&#xA;AAIRAQMRAf/EAaIAAAAHAQEBAQEAAAAAAAAAAAQFAwIGAQAHCAkKCwEAAgIDAQEBAQEAAAAAAAAA&#xA;AQACAwQFBgcICQoLEAACAQMDAgQCBgcDBAIGAnMBAgMRBAAFIRIxQVEGE2EicYEUMpGhBxWxQiPB&#xA;UtHhMxZi8CRygvElQzRTkqKyY3PCNUQnk6OzNhdUZHTD0uIIJoMJChgZhJRFRqS0VtNVKBry4/PE&#xA;1OT0ZXWFlaW1xdXl9WZ2hpamtsbW5vY3R1dnd4eXp7fH1+f3OEhYaHiImKi4yNjo+Ck5SVlpeYmZ&#xA;qbnJ2en5KjpKWmp6ipqqusra6voRAAICAQIDBQUEBQYECAMDbQEAAhEDBCESMUEFURNhIgZxgZEy&#xA;obHwFMHR4SNCFVJicvEzJDRDghaSUyWiY7LCB3PSNeJEgxdUkwgJChgZJjZFGidkdFU38qOzwygp&#xA;0+PzhJSktMTU5PRldYWVpbXF1eX1RlZmdoaWprbG1ub2R1dnd4eXp7fH1+f3OEhYaHiImKi4yNjo&#xA;+DlJWWl5iZmpucnZ6fkqOkpaanqKmqq6ytrq+v/aAAwDAQACEQMRAD8A9U4qg9ZQPpF6pJWsElGU&#xA;lWBCkggihBGKvDfKz6zruu22lS6tdxR3PqcpBK7UCRs/QsOvGmSQz6b8tNdji5WPme8WdR8AdpAp&#xA;NKUqslVH0HBasftfPnm/yvq7abr9b2KMgSK9C/A9HjkFOVf8r5bY0r1qyvba+tIby1cSW86B4nHd&#xA;TgSrYq7FXYq7FXYq7FUPqGoWWnWU19fTJb2lupeaaQ0VVHjgJpsxYpZJCMRci8K8yfnj5o8w6qND&#xA;8h2jx+s3pw3PAPcy06sqt8ESU7tuBuSuY8spJqL2uk9ncGCHi6o8un8I/ST+N0XZ/kT5y1mMXPmr&#xA;zRKs8lHa3UyXRB8C7uigiv7II8MIxE8y05faLTYvThwgjv2H2UXXv5A+aNLjNx5Y8zy/WV+IQv6l&#xA;qSR0pLG7b/NfpxOE9CjF7SYJ+nNhHD5UfsISvQfzo87eUtWOi+dbaS7ihYLM0ihbuNezK4osq99+&#xA;vZsiMpiaLl6nsDTarH4mmPCT/pT+r8bPedF1rS9a02HUtLuEurOcVSVD96sOqsO4O4zJBB5PEajT&#xA;zwzMJipBG4Wl2KuxV2KuxV2KuxV2KuxV2KuxV2KpJrPnPy/pF6ljeTubtwG9CGKSZgGqF5CNWoWo&#xA;aDqewwGQDk4tJkyR4gNvfSbWl3bXlrFdWsizW06iSGVDVWVhUEHC0SiYmjzCrixQuq/8cu8/4wSf&#xA;8QOKvD/yx/5TjTf+e/8A1DyZIoe9ZFLyr87YIRcaROAPWdJ0du5VChUfe7YQgpz+VmqwW/k7lf3E&#xA;dvDDcypC8zqi8KK53Yj9pziVDLdO1/RdTeZbC8iuTb0M3ptUKGrQ16dsCVGx81+Xb+/NhZ38U92K&#xA;n00JNeO54tTi30HFUzlliijaSV1jjQVZ2IVQPEk4qkM35geTYpDG2qwlh1KcnX/glBX8caVNtP1X&#xA;TNSi9WwuormMdTEwalf5gNx9OKorFXzl/wA5Aefp9R1k+V7KWmnacQb3gdpbnrxbxEXSn81fAZi5&#xA;p2afQPZjswY8fjyHrly8o/t+56L+SHkO38v+WIdUuIh+mNWQTSyMPijgb4ool8KrRm9+vQZbihQt&#xA;0HtF2kc+YwB/dw2956n9A/a9Iy1552KvO/zr8hw+ZPK8t/bxA6xpSNNbOo+KSJfiliPj8PxL/lfM&#xA;5VlhYd/7P9pHT5xEn93PY+R6H9fk8a/Jj8wLjyz5jisLmU/oXU5FiuY2PwxytRUmHhTYN/k/IZRi&#xA;nRet7f7MGowmQH7yA28x3fq831Df6lp2nw+vf3UNpD/v2eRYl/4JyBmWTT5vjwzyGoAyPkLQWi+a&#xA;/LmuTXEOkajBfSWvEziBuYUPXjuNjXiemASB5N2o0WbCAckTHi5WmvTc5JxUhuvPvku1uY7WbW7M&#xA;XMrrEkKzI783PFQQhYruepyPGO9zodm6iQMhjlQ8k+yTgpNr3nPyroBC6xqlvZyMKrC7VlI8RGvJ&#xA;6e9MiZAc3M02gz5/7uBl93z5IHSfzO8g6tcrbWOt273DnikchaEsfBfVCVPywDJE9W7P2PqsQ4pY&#xA;zXz+5k+TdaleueafLugxrJrGowWIcExrK4DsB14J9pvoGAyA5uTptHmzmscTL3JTYfmp+Xl/cLb2&#xA;2u23qtsokLQgk9g0oQfjkRkierlZextXAWccq+f3Mku72zs7SW8upkgtYVMks8jBUVRuWLHamTJd&#xA;fDHKchGIuR6PKtG/PPS9X8/fUfrMWneWooJhHdXRWP15wRxZnegjXiG4gkV770AoGYGXk9NqPZye&#xA;LS8VGeYkbDeh+nzVvMVrpeveY1l0LW9J1C4nliuba1F+iSpdQIq1KwiVpoikQ5JsRvT2kaJ2Li4Y&#xA;5MOP95jyRAFE8Bqj76o2XoflvSH0jRLXTpJfXlhUmWYDiGkdi7lV3ovJjQeGWAU6bUZfEmZVVplh&#xA;aULqv/HLvP8AjBJ/xA4q8J/L29tLLzhp9zdzJBboZQ8shCqvOF1FSdhuRkih7LfedfKllC0suqW7&#xA;gCvCGRZXPcUWMsd8il5Lr2pap578yxx6dbt6SD07aI/sR1+KSVhstT1+gb5JDOvM3luz0n8sp9OA&#xA;EjWipJ6tNzMZVLOK9K8iPltgSwPyFoura3JfaZaXP1SxmWM6jMBViik8Y1FR9ok1+X0ElDP9A/LS&#xA;HQfMFtqlremW3iSRZYplAb4kK1DLt37jBaWJaxrOoeevNcOj2krRaSJCI1HQpHUvMw7kgHiD7Yoe&#xA;k2vkjypbWQtF0yCSMCjSSoryMfEyEcq/L6MCXl/m7R73yR5jhvdHmeG2uAXtjUmnEjnE9ftLuOvY&#xA;4UPTLXzdaz+TJfMoUBLe1luJoq9HgVi6feu2RkaDfp8Ry5IwH8RA+b5I0i3l13zTZW905eXVb6KO&#xA;eTuzXEwDN8yWzAG5fXM8hhwSMeUIGvgH2sqqihEAVVFFUbAAdABmwfHibbxQ7FXEAggioPUYq+Kv&#xA;N+lJpPmrV9NjFIrS8nihH/FayEJ/wtM18hRfYdDmOXBCZ5yiD9j37zbfR69+QA1K6VZpzZW0hkbc&#xA;ieOVI3cHsSwbMqRuDwuhxnB2rwR2HFL5USGM/wDOMP8Avf5g/wCMVt/xKTIafq7L2w+nH75foe+5&#xA;kvDPkrzlbwW/5vXkUEaxRDVIyEQAKCzqxoB7nMKX1PqWgkZaCJO58M/c9w/OX8ypPKOkxWenEfpv&#xA;UQ3oORUQxDZpaHq1dlB779qHIy5OEPG9g9kjVZDKf93Dn5nu/WkH5P8A5Y6XfaSnmzzPCNV1PVC0&#xA;0KXn71VjJIDur1Du/wBqrV2pTI4sYIsud272xOGTwMJ4IQ29O2/6AEy/Nf8AKXy3f+W73U9JsYrD&#xA;VrCJrhTbII0lSMFnR0SiklQaGla4cmMEWHG7F7bzQzRhkkZQka33q+tpT/zj9+YN9qUFz5b1WZp5&#xA;bGL6xYTuSzmBSFeMnq3AspXvSo6AZHDO9i5XtP2XHGRmgKEjUh59/wAerCfy9m0zzz+akt35scTi&#xA;5WWa1tZT+7eRWHpQUJ3VIySF78e+Vw9Ut3c9qRno9CI4NqoEjnXU/E/e9h89/lF5X1/RJotP0+30&#xA;7VYkJsbi2jSEc1HwpIEChkalN+nbMieIEPJ9m9uZ8GQGcpTgeYJv4jzW6n5atNR/J60tNYhk9Ww0&#xA;aKX0fUkiK3EFoCOaoyhuDjo9RXAY3DfuTh1csfaBljIqWUjkDsZdP2PEPyV8taJ5i84vYazbC7tF&#xA;tJZREXdPjVkANY2Q9GOUYognd7H2i1WTDp+LGeGXEP0voPR/yr8g6PqUGpabpK297bEtDMJZ24kg&#xA;qdnkZeh8MyRADo8Dm7W1OSJhOZMT0ZXk3XuxVC6r/wAcu8/4wSf8QOKvB/IGn2eoebbCzvYhPbS+&#xA;t6kTVoeMLsOnuMkUPW/+VZ+R+XL9GCta/wB9PT7vUpgtKeabpOmaZB6Gn20dtEeojUCtO7HqT88C&#xA;pF+ZxI8j6lT/AIp/6iI8IViP5J/71at/qQ/rfEqz7zlcyW3lXVZo9nFtIqkdQXHGv0VwK8z/ACZj&#xA;jbzHdud3S0bh9MiVOEoD2TAlgX5yW6P5at5j9uG6UKfZ0cEfgMIQWJ6HJPJ+Unm+BDtHDM42rsYR&#xA;z/4VMhl+kuy7HI/NY7/nh4z5CmWHzx5fkanFdStORYVAHrrU/RmFDmH03tKN6bIP6EvufZ+Z75C7&#xA;FXYq7FXx/wDmuQfzF1+hr/pTfgBmDk+ovq/Yv+KY/wCq9ZII/wCcaKEUP1UHfwN7UZd/k3l/+dz/&#xA;AJ3+8Sn/AJxh/wB7/MH/ABitv+JSYNP1cr2w+nH75foe+5kvDPk7zz/5OO9/7akX/EkzCn9b6h2d&#xA;/wAZ8f8AhZ/SjP8AnIC5mm/Mi6jkaq29vbxRDwUp6lP+CkOHN9TV7MQA0YI6k/fX6HougflV51bQ&#xA;9Pez/MC8trR7eJ4LeOFykaOgZUX/AEgbAGg2y2OM1zdBqe2tN4suLTxMuI2bG/8AsUZL+UnnyaJ4&#xA;pfzEvnjkUo6GB6FWFCD/AKTh8OXe0x7c0oNjTQv3/wDHXeQfyObyj5lg1sa59cESSRtbfVfS5CRC&#xA;v2/Wk6HfpjDFwm7XtP2i/NYTj8Phut+K+X+aHm/5oflDrflvUZ9Z0WN7jRGkM6NBX1bQ15cWA+Li&#xA;p+y4+mnerJiI3HJ6HsftzHqIDHkNZKrflL8d3yTDyF/zkFq+nNFY+Zw2o2Oy/Xl/3pjHi3aUD/gv&#xA;c4YZiObj9pezGPJcsPol3fwn9X3Pbtfv7PUPI2qX1lMs9pc6bcSQTIaqytAxBGZEjYeO02KWPUwj&#xA;IVITjfzeCf8AOOKM3n+YqKhNPmZvYepEP1nMbB9T2/tWf8FH9cfcX0zmW+dOxV2KoXVf+OXef8YJ&#xA;P+IHFXh/5Y/8pxpv/Pf/AKh5MkUPesil2KsZ/MpOfknUxWlFib/gZkP8MIVh/wCSf+9Wrf6kP63x&#xA;KvStZ08ajpF5YE0+tQvEGPYspAP0HfArxj8t9Q/Q3nNILweiZw9lMH24uSCAf9mgGEoe54EvOPzo&#xA;1SJNMstMDfvppfrDr3CRqVFfmz/hhCCj/wAvfLKr5Gmtb5CBrKytMh6iGZPSUb+KfF9OCW7ZhyGE&#xA;hIc4m/k+W9Rsb/Qdcns5x6d9p1wUO37cTbMPY0qM15FF9hxZI58QkPpmPvfZ+h6rb6vo1lqluaw3&#xA;sEc6U7c1DUPuOhzPBsW+Q6jCcWSUDziSEbhaXYqsmmighkmmcRxRKXkdtgqqKkn5DFMYkmhzL4r1&#xA;u9n1/wAz3t5BGzzapeSSQQjdiZ5CUQf8EBmvJsvsOnxjBhjE8oRF/APpjzl5bex/Ji80SD4nsNNj&#xA;VioryNsFkkb/AGXAnMuUfRT5zoNWJ9oxyn+KZ/2Ww+95j/zjbrNpaeZtR02d1jk1G3U2/Lbk8DEl&#xA;B78XJ+jKsB3ek9rNPKWGMx/Ad/i+jcynz98lecruyu/zdu7iylE1u+pxBZQQQWV0V+JGxHIGh8Mw&#xA;pH1PqWghKOgAkKPAf0sq/wCckPLc9t5is9fjT/Rb+EQSuB0nhrSv+tHSnyOTzx3t1nsnqxLDLEfq&#xA;ib+B/b970v8AJXznZ6/5OtLIyAanpMSWtzASORjjHGKQDqVZAAT/ADVy3FKw877QaCWDUGVeiZsH&#xA;38x+Oj0DLXRMX1TzzYxX2q6dpxW7vdIsJ769IqY4njH7uFyv7bmpK1qAMgZuxw9nTMYTn6Y5JiI7&#xA;z3n3JzoOtWWt6NZ6tZNytr2JZY/EV6qfdWqp98kDYtxdTp5YckscucTTxr8/vy98u2Okr5l06JLG&#xA;8NwsNzBGAsc3qAnkEGwcca7dRWuUZoCreu9me1M08ngzPFGrB6iv0In8mp7+6/KDzFavyeKH67FZ&#xA;g9g9sGZF9ubE/M44voLX2/GMdfjl1PDf+m/Uw/8A5xznEX5gSJyC+vYTR0P7VHjeg/4CuQwfU7X2&#xA;qjelB7pj9L6bzLfOXYq7FUJqy3TaZdJaRia5eNkijYhVLMKCpO1BWpxV5l5Q/L7zVovmOy1KeCJ4&#xA;YGYSBZRXjIjRkj5cq4bQ9YwJdiqQ+d9O1LU/Ltxp2nRLJPdFFLOwRVVXDE79a8aYhWPflv5S1/y9&#xA;e3Zv4Y/RukUCSOQMVZCSKr4HlhKs/wACsI87flrBrc7ajp8i2upEfvA1fTlI6Fqbq3uMNqgrS8/N&#xA;+xtxZHTre9KDjHdyOhYgd2IlSu38wr88UO0n8uNT1DVf0x5uuFuZyQwtENV+HoHIAUKP5V+/G1ei&#xA;AAAACgHQYEvE/wA/Py0uL6vmzSIjJPEgXVbdASzomyzKB1Krs3+SAexzHzY+oex9mu1xD9xkOx+k&#xA;/o/V5oH8gPzIt7eMeUdVmEas5fSZnIC1c1eAk9Kt8SeJJHhgwz6Fu9puyTI/mID+t+v9b23U9Nkv&#xA;Ywsd7c2Ljb1bVkDfdIkif8LmQQ8dhyiB3jGXv/YQxHVvL/5rWwaXQ/NMV9T7NpqNpAhoB09aBFqf&#xA;mo+eQMZdC7XBqtDLbLiMfOMj9xP6XlXn780vzQt9Nu/LXmLTINNlvEMbXMSOrPET8Yjf1JI2DD4S&#xA;V7e+UzyS5F6bszsbRSmM2GRmI9NufnsCx78m7zydYebo9Q8y3P1YWq8tPLqxi9cmgaRlrx4DcVFK&#xA;71FMhiIB3c/t7HqJ6cwwi7+rvryfViPaXtqGRkuLW4TZlIeN0YdiKhgRma+ZEShLfaQfPvnD/nH/&#xA;AMyWOqtfeUGFzamT1ILf1VhuIGrUBXcorBf2W5V/XmLLCb2e60HtPhnDh1G0q3NWD+PcmGn+Q/z0&#xA;16FdN8w6zJpuk/ZnLzxyyuncf6OSZK/5b4RCZ5loy9pdmYDx4oCc+mxA/wBly+AS3X/+cf8AzPb+&#xA;aUHlnh+iQIngvbmZQ0UiABvUABctzUt8KU3+jBLCb2cjTe0+GWD999e9gDn7vhtuXt+oeXIte8tf&#xA;ojzKkV088YF00CtGglHR4uRZlKnoa/0zIMbFF43FqjgzeJhuNHa+7uLw7VPyI8/+X9U+veU7360E&#xA;JNvLFMLW6UeDciiHw2bfwzHOGQOz2eH2k0ueHDnjw9+3FH9f2Jtb+W/+cjNYjFjqWp/o20PwvM0t&#xA;sr8T1+K0DSN9Jw8OQuLLV9kYjxQhxy90v99s9H8o/lro3lzyxd6JFI88mpI66lfGiyStIhQkfa4h&#xA;Qx4jenua5dHGAKef13a2TUZhkIrg+kdB+OrAtM8k/nD5Bllg8qTWuu6RKxZbS4Ij4sf2ijvFxP8A&#xA;qSb98qEJx5bu8zdodn64A5xLHkHUfsB+0KGreQvzf/MC+gXzY9toumWzclt4WWRQTsWSOOSXk1O7&#xA;ybdsTCUubPB2loNDE+BxZJnqdvtIG3uD13yz5Z0vy5olvo+nIRawKQS9C8jNuzuQBVmPXLoxAFPK&#xA;6vVz1GQ5J/UfseKeZPyQ84aH5jGt+RpFkjSUzWkKyLFPAT1T96QjpQ0+1uNiPGiWIg3F7DSe0Onz&#xA;YfD1I6UdrB+W4L0HyhJ+b+pzQN5ojstIsICryLbjld3BWhCkrLLGisft7A9qb5bHiPN0OvjoMYPg&#xA;Gc5Hv+kfYCfJn+WOjdirsVdirTMqqWYhVHUnYDFUovPOHlezqLjVLdWGxRZA7D5qnI4qkl3+bflC&#xA;CvpPPdf8YoiP+Tpjw0tpW/5w+sSNN0Se5PQFnp+CLJ+vGkWpt57/ADGuv94vLhjVujSQzt3p9omN&#xA;cVUzffnRdbxWy24O+y2y03/4tLHFVn6C/OG5/vdQ9H/nsidP+MQxVr/lX/5kzkG41+g3NDdXLEE+&#xA;3GmNqtP5SeZJQPrGtIx6EVlcAe1aY2tMt8m+VtZ8vh4LjVRe2JH7u3MZBRvFGLmg9qYpYp55/IPQ&#xA;Ncmkv9FlGkai55PGq1tnbx4ChQnxXb2yieEHk9N2d7S5cIEMg8SH+y/b8fmg9Ff8+vK6LZ3On2/m&#xA;awi+FJRcIJQBsAJHMchH+ujHAOMebbqB2XqTxCRwyPlt8tx8iGW2Hmr8wrsAN5L+qE7F7jUoFQHv&#xA;9iOSSn+wyYlLudXl0Wkj/l+L3QP6SB9rFPz41bTU8irp+tfVj5iuJI5LC3gJkMXFx6kgZgrcSgZa&#xA;lRWvTbIZiK35uy9msEzqePHfhC7J2vuHvvd84ZivoT3D/nGvzFqLX2peXpHaSxWA3luG3WJ1kVHC&#xA;+HP1Aae3zzIwS6PGe1ulhwxyj6r4T57X9lM0178rNa1jUJr671pJZn+wDCyqqj7KKObcVGZVvDIA&#xA;flH5lhA+r6xGp6HeVNvorja0v/5V/wDmVb1NvroIqKBbq5UmniCtMbVcNE/OK2/ur/1u280b/T+9&#xA;GKr11D86LXea1Fx33S3bv/xSwxVevn38xbagvfLhkUdWSCda/wCyrIuNKqx/nGsRC6hos9ue/F6/&#xA;g6x/rxpbTS0/NryfPT1ZJ7X/AIzRE/8AJoyY0m08s/N/le8oLfVLZmPRGkCMf9i/E4FTZWVlDKQy&#xA;noRuDireKuxV2Kpbda/ZQkpEk95KNuFrE8u/gXA9Nf8AZMMVQEmqecLmosNGitFP2JtQnH4xweof&#xA;+GxVCyaD54va/W/MKWcZ6w2NuB90jnmMKqB/K/Sbgh9T1C/1GTuZ5qr9ApX8cbVH2v5deTLanDTE&#xA;cjvKzyV+h2IwWqa22haJa0+rafbQ07xwxqfwGKo4AAAAUA6DFXYq7FXYq7FXYq7FXYqxjzl+ZHlT&#xA;ylF/uUuuV4y8orCAB52HY8agKD4sQMhKYjzdloOyc+qPoHp/nHl+Pc8R81f85EeatS5waLDHo9s2&#xA;3qCk1wR/rsOC/QtR45jyzk8nsdF7LYMe+Q+IfkPx8fg8uu7y7vLmS5u5pLi5lPKSaVi7sfFmYknK&#xA;SXpYY4wHDEUB3KOLN9OfkR5Bn8vaFJq2oR+nqerBWWJhRorcbop8GcnkfozLwwoW+ce0naYz5Rjh&#xA;9EPtP7HqGXPNuxV2KuxV2KuxVzKrAqwBB6g7jFUBc+X9Bua/WNOtpq93hjY/eR74qlVz+XPky4qW&#xA;01EJ7xNJHT6FYD8MbVAD8rtJt2L6ZqF/p0nYwzUH6q/jhtURHoPnmyp9U8wR3kY6RX1uPxkQlziq&#xA;Ki1TzhbUF/o0V0v7U2nzr+Ec/pn/AIbAqY2uuWk7BJI57SU/sXMTxb+Acj02+hjiqYYq7FXYq7FX&#xA;Yq7FXYq7FXYq7FXYq7FXYqxD80/OzeUfKc1/BxOozsLawVhUeq4J5keCKpb50HfIZJ8Idr2N2f8A&#xA;ms4gfoG8vd+18k3t7eX13NeXkz3F1OxeaaQlmZj1JJzBJt9Tx44wiIxFRChizdir0f8AIzyXB5i8&#xA;2G6vUEmn6Qq3EsZFVeVjSFG9qqW9+NMtwwsvP+0faB0+Dhj9c9vh1/V8X1LmY+aOxV2KuxV2KuxV&#xA;2KuxV2KuxV2KuxV2KuxV2KuxV2KuxV2KuxV2KuxV2KuxV2KuxV2KvFf+cnIZzpGhzAH0EuJkduwd&#xA;0UoD9CNmPqOQew9kJDxMg60Hz7mM927FXYq90/5xivrYS6/YkgXLrbzoO7IhkVvoUuv35kac83i/&#xA;a/Gaxy6eofd+Pg94zJeIdirsVWNPAsqxNIqyvukZIDH5Driq/FXYq4kClT16Yq7FXYq7FXYq7FXY&#xA;q7FXYq7FXYq7FXYq7FXYq7FXYq7FXYq7FXYqknnPynp/mry9c6Nengsw5QTgVaKZfsSAex6juKjI&#xA;yjYpzNBrZ6bKMkenMd47nyf5x8ieYvKV8bbVbciFmIt71AWglH+Q/jT9k75hSgY831DQdpYdVHig&#xA;d+o6hj2Rc92Kpx5T80an5Y1231jTmHrQGjxtXhJG3243p2Yf1yUZUbcTW6OGpxHHPkfsPe+q/I/5&#xA;keW/N9oGsJhFfqtbjTpSBMniQP21/wApfppmZCYk+Zdo9k5tLL1i49JDl+z3MpybrHYq8u80RabD&#xA;54e/umF3bGezScwyFJ7OUKPT9mRwpJp+BpUqhLXzPrHl7QJFjvFmupL+7AjlhMjkwlS7VVwFBLEt&#xA;X6MUInzLrnmHV9E1ucXEUGl2b2oEMaEyN6jRsKPWooSD74qn/wCYX6SjttBFtMov1vo+EzLRTII2&#xA;+IqK7HwxCpJY+fPNl3qulQRIskLra/XQIwA3rtRm5V+E+FMaVSvPPHnFNE0m8hkie41WS5ZEjhBK&#xA;pbEJxoSepqSewxpL0zT55biwt5pVCzSRI8qDorMoJH44FRGKuxV2KuxV2KuxV2KuxV2KuxV2KuxV&#xA;2KuxV2KuxV2KuxVRvLKzvrZ7W9gjubaQUkhmRXRh7qwIOJDPHklA8USQfJ5p5i/5x58l6kzy6a82&#xA;jztvxiPqwV/4xueX/AuBlMsIL0Wl9qNRj2nWQeex+Y/U891b/nG/zlbFm067tNQjH2V5NBIf9i4K&#xA;f8PlRwF32D2r08vrEo/aP1/YxLUPyn/Mawr6+g3T0/5Z1Fz/AMmDJkDjkOjtMXbWknyyR+O330kM&#xA;threlzLLLbXNjNGarI6SQsp8QSFI65GiHOjlx5BQMZA+4s58ufn3580lUhupo9Wtl243a/vae0qc&#xA;WJ935ZZHNIOl1fs1pcu8QYH+jy+X6qej6L/zkn5WueKarYXOnyHq8fG4iH0jg/8AwmWjOOrz+o9k&#xA;88f7uUZfYf0j7U8h8z/kzr+pR6o2o2ZvwyFXuZJLUlkpx5JKYlYilNwcsGSJ6unzdi6vHzxy+G/3&#xA;WnqeVfIuqh5YoILxZJWuWaKZnUySAcm+B6UbbbpkwXXzxShtIEe9M38taE9jc2Js0+q3fH6xGKry&#xA;4ABdwQfh4ilDiwREuladLFbRSwLJHZlWtg/xcCq8VIJ8AcVQA8m+WRd2l2LBBPYhFtXDOOIjNU2D&#xA;Uah7sDjat3vk/wAtXtnb2VxYI1raFmt4lLIELmrU4FT8R64qmNpY2doJBbRLEJW5yBdqsFCV/wCB&#xA;UDFVfFXYq7FXYq7FXYq7FXYq7FXYq7FXYq7FXYq7FXYq7FXYq7FXYq7FXYq7FUj1L/BG/wCk/wBG&#xA;dBX6z9X6V2+375E11c3F+Z/g4/hxfoY5e/8AKiqn6x/h3nyPLh9T58u/Lh8X35A8Hk7DH/KfTxv9&#xA;l+lJJf8AoXLg/L9GUoa8fUr9HHf7sH7tyx/K/wDtn2IMf9C1819P0PUr8HpfX+Vfbhvg/dsz/K9b&#xA;8X+xT2z/AOVb0/3Ffp2lN/qP6epx2/k2pkxXR1+T81f7zw/87w09tP0RyX0P09Wv+7f0lT6fXyTi&#xA;z4+vh/Dg/Qn9p2p9Z6j+9/jXC4U/h8Ebha3Yq7FXYq7FXYq//9k=</xmpGImg:image>
               </rdf:li>
            </rdf:Alt>
         </xmp:Thumbnails>
      </rdf:Description>
      <rdf:Description rdf:about=""
            xmlns:exif="http://ns.adobe.com/exif/1.0/">
         <exif:ColorSpace>65535</exif:ColorSpace>
         <exif:PixelXDimension>1054</exif:PixelXDimension>
         <exif:PixelYDimension>400</exif:PixelYDimension>
      </rdf:Description>
      <rdf:Description rdf:about=""
            xmlns:dc="http://purl.org/dc/elements/1.1/">
         <dc:format>image/svg+xml</dc:format>
      </rdf:Description>
      <rdf:Description rdf:about=""
            xmlns:xmpTPg="http://ns.adobe.com/xap/1.0/t/pg/"
            xmlns:stDim="http://ns.adobe.com/xap/1.0/sType/Dimensions#"
            xmlns:xmpG="http://ns.adobe.com/xap/1.0/g/">
         <xmpTPg:MaxPageSize rdf:parseType="Resource">
            <stDim:w>8.500000</stDim:w>
            <stDim:h>11.000000</stDim:h>
            <stDim:unit>Inches</stDim:unit>
         </xmpTPg:MaxPageSize>
         <xmpTPg:NPages>1</xmpTPg:NPages>
         <xmpTPg:HasVisibleTransparency>False</xmpTPg:HasVisibleTransparency>
         <xmpTPg:HasVisibleOverprint>False</xmpTPg:HasVisibleOverprint>
         <xmpTPg:PlateNames>
            <rdf:Seq>
               <rdf:li>Cyan</rdf:li>
               <rdf:li>Magenta</rdf:li>
               <rdf:li>Yellow</rdf:li>
               <rdf:li>Black</rdf:li>
            </rdf:Seq>
         </xmpTPg:PlateNames>
         <xmpTPg:SwatchGroups>
            <rdf:Seq>
               <rdf:li rdf:parseType="Resource">
                  <xmpG:groupName>Default Swatch Group</xmpG:groupName>
                  <xmpG:groupType>0</xmpG:groupType>
               </rdf:li>
            </rdf:Seq>
         </xmpTPg:SwatchGroups>
      </rdf:Description>
      <rdf:Description rdf:about=""
            xmlns:xmpMM="http://ns.adobe.com/xap/1.0/mm/"
            xmlns:stEvt="http://ns.adobe.com/xap/1.0/sType/ResourceEvent#"
            xmlns:stRef="http://ns.adobe.com/xap/1.0/sType/ResourceRef#">
         <xmpMM:DocumentID>xmp.did:DB565088E989E3118175EF525997A457</xmpMM:DocumentID>
         <xmpMM:InstanceID>xmp.iid:DB565088E989E3118175EF525997A457</xmpMM:InstanceID>
         <xmpMM:OriginalDocumentID>xmp.did:5EA8AAB49288E3118175EF525997A457</xmpMM:OriginalDocumentID>
         <xmpMM:History>
            <rdf:Seq>
               <rdf:li rdf:parseType="Resource">
                  <stEvt:action>saved</stEvt:action>
                  <stEvt:instanceID>xmp.iid:5EA8AAB49288E3118175EF525997A457</stEvt:instanceID>
                  <stEvt:when>2014-01-30T14:32:20-05:00</stEvt:when>
                  <stEvt:softwareAgent>Adobe Illustrator CS6 (Windows)</stEvt:softwareAgent>
                  <stEvt:changed>/</stEvt:changed>
               </rdf:li>
               <rdf:li rdf:parseType="Resource">
                  <stEvt:action>saved</stEvt:action>
                  <stEvt:instanceID>xmp.iid:DB565088E989E3118175EF525997A457</stEvt:instanceID>
                  <stEvt:when>2014-02-01T22:38:25-05:00</stEvt:when>
                  <stEvt:softwareAgent>Adobe Illustrator CS6 (Windows)</stEvt:softwareAgent>
                  <stEvt:changed>/</stEvt:changed>
               </rdf:li>
            </rdf:Seq>
         </xmpMM:History>
         <xmpMM:DerivedFrom rdf:parseType="Resource">
            <stRef:instanceID>xmp.iid:5FA8AAB49288E3118175EF525997A457</stRef:instanceID>
            <stRef:documentID>xmp.did:5FA8AAB49288E3118175EF525997A457</stRef:documentID>
            <stRef:originalDocumentID>xmp.did:5EA8AAB49288E3118175EF525997A457</stRef:originalDocumentID>
         </xmpMM:DerivedFrom>
      </rdf:Description>
   </rdf:RDF>
</x:xmpmeta>
                                                                                                    
                                                                                                    
                                                                                                    
                                                                                                    
                                                                                                    
                                                                                                    
                                                                                                    
                                                                                                    
                                                                                                    
                                                                                                    
                                                                                                    
                                                                                                    
                                                                                                    
                                                                                                    
                                                                                                    
                                                                                                    
                                                                                                    
                                                                                                    
                                                                                                    
                                                                                                    
                           
<?xpacket end="w"?>
	</metadata>
<g>
	<path fill="#CF667A" d="M530.205,541.785c-4.777,0.201-9.477-1.135-14.263-0.676c-0.002,0.001-0.004,0.001-0.006,0.001
		c0.003,0.001,0.005,0.001,0.008,0.001c-2.12,1.436-4.533,0.254-6.761,0.756c0.035,0.21,0.06,0.42,0.066,0.633c7,0,14,0,21,0
		C530.297,542.258,530.281,542.02,530.205,541.785z"/>
	<path fill="#FC89A2" d="M509.184,541.867c-7.506,0.002-15.013,0.004-22.52,0.005c0.053,0.206,0.081,0.416,0.086,0.628
		c7.5,0,15,0,22.5,0C509.243,542.287,509.219,542.077,509.184,541.867L509.184,541.867z"/>
	<path fill="#F1B0C4" d="M291.75,250.75c-5,0-10,0-14.999,0c-0.007,0.23-0.016,0.46-0.025,0.69
		c5.014,0.003,10.028,0.008,15.042,0.012C291.755,251.218,291.749,250.984,291.75,250.75z"/>
	<path fill="#D8B6BA" d="M530.205,541.785c0.076,0.234,0.092,0.473,0.045,0.715c3.75,0,7.5,0,11.25,0
		C537.808,541.108,533.979,541.881,530.205,541.785z"/>
	<path fill="#D11033" d="M478.783,540.224c1.33-0.007,3.161,0.696,3.49-1.616c0-0.003,0-0.005-0.001-0.008
		c-0.842-0.176-1.677-0.424-2.527-0.518c-26.478-2.906-52.784-6.801-78.38-14.412c-15.132-4.501-29.956-9.744-42.832-19.4
		c-11.281-8.459-17.442-19.338-17.179-33.582c0.196-10.732,4.91-19.704,11.063-28.118c4.783-6.541,10.24-12.625,13.659-20.101
		c5.334-11.657,2.241-22.546-8.391-29.649c-4.399-2.94-9.214-5.014-14.169-6.744c-1.99-0.697-2.743-1.162-1.149-3.188
		c11.465-14.575,16.769-31.33,17.095-49.722c0.461-26.047-7.974-48.339-28.521-65.126c-10.936-8.933-23.335-14.83-37.694-15.833
		c-6.249,0-12.499,0-18.749,0.001c-0.005,0-0.01,0-0.015,0.001c-1.735,0.157-3.508,0.134-5.198,0.497
		c-25.582,5.499-43.173,20.948-53.546,44.477c-11.58,26.268-10.335,52.383,4.193,77.212c18.912,32.316,57.875,45.556,91.412,31.708
		c0-0.003-0.001-0.004-0.001-0.007c-0.524-1.084-1.679-0.546-2.471-0.945c-0.002,0-0.004,0.001-0.005,0.001
		c-1.485,0.195-2.968,0.403-4.453,0.592c-21.954,2.752-40.932-2.695-55.159-20.514c-9.704-12.156-14.333-26.453-16.404-41.657
		c-2.472-18.151-1.23-35.893,6.445-52.812c10.237-22.566,33.095-34.07,56.327-28.039c15.833,4.109,25.617,15.225,32.18,29.538
		c6.889,15.019,8.266,30.972,7.561,47.248c-0.543,12.529-3.333,24.45-9.294,35.541c-2.985,5.553-3.023,5.472-9.166,4.381
		c-15.712-2.789-31.563-4.171-47.54-4.454c2.5,0.753,5.041,1.298,7.58,1.858c13.062,2.879,26.057,6.045,37.75,12.858
		c14.108,8.221,14.086,18.987,0.098,27.597c-6.095,3.751-12.766,6.261-19.351,8.95c-12.002,4.9-24.02,9.729-33.905,18.54
		c-15.481,13.796-20.402,41.602,1.06,58.705c4.02,3.202,8.272,6.021,12.839,8.364c21.423,10.99,44.677,15.616,68.131,19.47
		c22.072,3.622,44.33,5.733,66.633,7.241c11.949,0.809,23.895,1.941,35.898,1.734c0.001,0,0.002,0,0.003,0.001
		c0-0.001-0.001-0.001-0.001-0.001C456.994,540.278,467.887,540.283,478.783,540.224z"/>
	<path fill="#838588" d="M-31.818,385.462c9.81,0,18.622,0,27.434,0c-4.579-3.51-4.303-8.375-4.335-12.982
		c-0.096-14.499,0.033-28.999-0.093-43.497c-0.027-3.063,0.504-3.616,3.723-2.881c18.234,4.168,35.065,1.92,48.749-12.176
		c13.745-14.159,13.095-36.859-1.494-49.915c-7.458-6.674-16.742-9.287-26.461-10.271c-14.455-1.464-28.97-0.328-43.454-0.659
		c-1.054-0.024-2.108-0.003-3.162-0.003c4.124,3.446,4.077,7.762,4.068,12.24c-0.069,34.247,0.001,68.495-0.074,102.742
		C-26.93,374.094-25.197,380.63-31.818,385.462z M-4.722,261.116c5.971,0.264,11.982-0.512,17.915,0.806
		c12.479,2.773,19.827,11.365,20.665,24.175c0.635,9.708-0.694,18.921-8.488,25.661c-9.168,7.927-20.151,9.185-31.73,7.446
		c-2.437-0.366-2.408-2.035-2.401-3.879c0.03-8.366,0.012-16.733,0.009-25.1c-0.002-8.367,0.101-16.736-0.056-25.101
		C-8.866,262.031-7.848,260.978-4.722,261.116z"/>
	<path fill="#838588" d="M177.902,380.266c13.759-9.751,19.666-23.733,20.174-40.256c0.079-7.382-1.367-14.44-4.063-21.238
		c-11.567-29.162-45.689-30.625-62.574-17.76c-18.652,14.21-24.422,42.077-12.967,64.421
		C129.559,387.058,158.065,394.324,177.902,380.266z M138.222,309.307c8.148-11.695,23.797-11.835,32.489-0.518
		c3.959,5.156,6.246,11.067,7.721,17.31c1.265,5.358,1.868,10.813,1.713,16.646c0.165,7.906-1.105,15.872-4.653,23.343
		c-4.748,10.002-13.709,14.856-23.659,12.95c-5.893-1.128-10.114-4.695-13.386-9.481c-4.778-6.988-6.927-14.931-7.62-23.224
		C129.74,333.322,130.417,320.508,138.222,309.307z"/>
	<path fill="#838588" d="M218.788,396.122c-1.632-1.76-3.186-2.388-5.496-2.221c-14.692,1.055-29.396,1.971-44.09,3.005
		c-23.411,1.648-46.739,4.18-70.015,7.113c-30.07,3.789-59.98,8.638-89.688,14.671c-25.429,5.161-50.71,10.936-75.439,18.903
		c0.526,0.254,1.052,0.508,1.579,0.766c-0.006,0.003-0.012,0.005-0.019,0.007c0.006-0.001,0.012-0.003,0.019-0.005
		c0.747-0.062,1.507-0.054,2.239-0.194c13.822-2.66,27.597-5.593,41.467-7.966c46.268-7.918,92.821-13.736,139.555-18.019
		c31.814-2.915,63.684-5.153,95.618-6.362c4.062-0.153,8.117-0.465,12.175-0.702c0.277-0.354,0.554-0.706,0.83-1.061
		C224.587,401.435,221.452,398.997,218.788,396.122z"/>
	<path fill="#848589" d="M63.915,307.376c-0.109,22.374-0.067,44.749-0.027,67.124c0.008,4.141,0.372,8.323-5.066,10.789
		c9.479,0,17.793,0,26.904,0c-3.287-2.267-4.754-4.566-4.735-7.951c0.101-18.999,0.046-37.999,0.046-56.999
		c0-1.246,0.015-2.439,0.749-3.59c6.38-10.011,17.324-11.903,26.56-4.559c0.156,0.124,0.452,0.071,1.033,0.147
		c0-4.872-0.167-9.7,0.061-14.511c0.144-3.035-1.437-3.936-3.933-4.308c-4.591-0.685-8.582,0.612-12.302,3.321
		c-4.551,3.315-8.049,7.638-12.176,12.7c0-5.136-0.022-9.327,0.012-13.518c0.013-1.558-0.15-2.792-2.227-2.376
		c-6.815,1.364-13.636,2.703-20.454,4.052C62.894,299.713,63.937,303.019,63.915,307.376z"/>
	<path fill="#B22742" d="M509.184,541.867L509.184,541.867c2.228-0.502,4.641,0.68,6.761-0.756c-0.003,0-0.005,0-0.008-0.001
		c-11.223-0.836-22.441-1.672-33.661-2.511c0,0.003-0.001,0.005-0.002,0.008c-0.329,2.313-2.16,1.609-3.49,1.616
		c-10.896,0.06-21.789,0.055-32.686,0.069c0,0,0.001,0,0.001,0.001c0.884,0.638,1.91,0.439,2.89,0.471
		c12.558,0.376,25.117,0.739,37.676,1.107l0,0C494.171,541.871,501.678,541.869,509.184,541.867z"/>
	<path fill="#932F47" d="M293.246,252.207c-0.493-0.252-0.986-0.503-1.478-0.755c-5.014-0.004-10.028-0.009-15.042-0.012
		c-0.731,0.302-1.723-0.158-2.241,0.768c0.004,0,0.008,0,0.012,0C280.748,252.207,286.997,252.207,293.246,252.207z"/>
	<path fill="#A3A3A4" d="M-65.94,437.594c-2.701,0.396-5.172,1.463-7.626,2.628c3.15-0.217,6.252-0.619,9.187-1.855
		c0.006-0.002,0.012-0.004,0.019-0.007C-64.888,438.102-65.414,437.848-65.94,437.594z"/>
	<path fill="#B87C89" d="M311.342,406.096c0.001,0.002,0.003,0.004,0.004,0.006c1.59-0.198,2.983-0.791,4.628-2.196
		c-2.875-0.234-5.024,0.293-7.104,1.245c0,0,0,0,0.001,0C309.663,405.55,310.817,405.012,311.342,406.096z"/>
	<path fill="#D11033" d="M373.216,306.488c-0.075,4.498-0.052,8.998,0.004,13.497c0.151,12.243-0.54,24.502,0.356,36.724
		c0.71,9.665,3.943,18.353,11.871,24.552c11.609,9.08,28.48,7.834,41.03-2.875c1.385-1.181,2.71-2.434,4.572-4.114
		c0.236,3.173,0.292,5.707,1.575,7.861c1.482,2.487,3.416,5.479,6.48,4.703c5.215-1.32,10.169-3.666,16.088-5.903
		c-7.119-1.941-7.73-6.86-7.73-12.118c-0.002-20.745-0.002-41.491-0.003-62.236c0-3.498,0.007-6.998-0.011-10.497
		c-0.007-1.251,0.121-2.806-1.84-2.43c-6.755,1.294-13.491,2.689-20.234,4.045c4.676,2.249,5.424,5.897,5.399,10.235
		c-0.097,16.745-0.459,33.508,0.175,50.23c0.254,6.679-2.713,10.107-7.613,13.146c-9.872,6.121-20.41,5.092-27.753-3.346
		c-4.053-4.658-5.062-10.676-5.083-16.762c-0.039-10.497-0.017-20.995-0.018-31.493c-0.002-7.749,0.012-15.497-0.014-23.245
		c-0.003-1.291,0.377-3.192-1.854-2.788c-6.955,1.26-13.877,2.695-20.815,4.061C371.885,299.694,373.279,302.563,373.216,306.488z"
		/>
	<path fill="#D11033" d="M508.275,386.387c12.641-2.528,22.037-9.606,26.559-22.184c-0.17-1.151-0.063-2.499-1.812-2.507
		c-0.003,0.001-0.005,0.001-0.008,0.002c-3.151,3.178-6.548,6.025-10.213,8.642c-13.732,9.807-33.47,5.998-42.301-8.351
		c-4.326-7.031-5.926-14.775-5.919-22.916c0.004-6.021-0.63-5.252,5.104-5.264c18.123-0.035,36.247,0.003,54.372-0.044
		c1.514-0.004,3.712,0.876,3.501-2.283c-0.571-8.631-2.485-16.804-7.713-23.898c-11.88-16.125-34.929-18.864-51.796-7.883
		c-17.664,11.5-24.358,28.819-21.129,49.319C460.962,374.668,483.319,391.377,508.275,386.387z M475.823,323.282
		c1.458-6.871,4.045-13.09,9.413-17.854c11.439-10.156,28.888-4.382,32.979,10.896c2.708,10.108,2.708,10.108-7.435,10.108
		c-4.49,0.001-8.979,0.001-13.47-0.001c-6.233-0.002-12.473-0.086-18.707,0.039C476.143,326.52,475.261,325.928,475.823,323.282z"/>
	<path fill="#838588" d="M679.454,437.545c-40.953-12.798-82.948-20.932-125.219-27.777c-25.745-4.168-51.624-7.309-77.569-9.97
		c-28.329-2.905-56.726-4.766-85.146-6.396c-0.978-0.057-2.143-0.441-2.898,0.309c-3.551,3.527-7.018,7.142-10.947,11.168
		c1.423,0.149,2.018,0.243,2.616,0.271c17.083,0.795,34.173,1.438,51.244,2.412c15.201,0.867,30.393,1.93,45.563,3.213
		c23.372,1.974,46.709,4.328,70.009,7.074c28.019,3.307,55.965,7.137,83.775,11.882c15.479,2.64,30.89,5.695,46.329,8.564
		C677.968,438.076,678.951,438.526,679.454,437.545z"/>
	<path fill="#D11033" d="M544.073,378.942c13.935,9.117,29.062,12.228,45.005,2.29c15.078-9.399,16.666-27.424,3.904-39.901
		c-4.787-4.679-10.608-7.859-16.349-11.157c-4.545-2.612-9.196-5.101-13.14-8.602c-7.641-6.78-5.509-17.078,4.148-20.369
		c7.056-2.404,14.106-0.116,19.36,6.179c3.223,3.863,5.106,8.458,7.744,12.785c0-6.37-0.005-12.74,0.009-19.11
		c0.001-1.151-0.25-1.754-1.494-2.49c-9.6-5.684-19.876-6.573-30.365-3.935c-9.056,2.276-15.509,7.987-17.695,17.404
		c-2.239,9.63,0.553,17.778,8.28,24.068c2.028,1.651,4.216,3.115,6.374,4.595c6.16,4.225,13.064,7.252,19.047,11.774
		c4.54,3.433,7.14,7.819,5.856,13.593c-1.319,5.934-4.737,10.317-10.803,12.184c-8.514,2.622-16.635-0.11-22.659-7.497
		c-3.805-4.667-6.006-10.154-8.279-15.697c-0.29,7.182-0.279,14.296-0.303,21.409C542.711,377.585,543.165,378.348,544.073,378.942z
		"/>
	<path fill="#D11033" d="M609.299,303.975c3.857-0.586,4.981,0.812,4.926,4.793c-0.234,17.366-0.175,34.737-0.07,52.106
		c0.068,11.848,6.251,21.106,16.146,24.661c11.576,4.158,20.785,1.681,29.082-7.823c-0.406-0.761-1.139-0.946-1.899-1.078
		c0.001-0.001,0.002-0.002,0.003-0.004c-0.003,0.001-0.007,0.002-0.01,0.003c-11.643,6.79-25.748-0.433-26.498-13.929
		c-0.553-9.942-0.304-19.932-0.3-29.899c0.004-9.589,0.15-19.177,0.234-28.766c0.001,0,0.003,0,0.004,0
		c1.011-1.418,2.508-0.746,3.767-0.764c7.686-0.111,15.369-0.122,23.054-0.167c0.001,0,0.002,0,0.003-0.001
		c0.054-0.995,0.016-2.006,0.176-2.983c0.58-3.509-0.609-4.785-4.368-4.589c-6.479,0.34-12.993,0-19.485,0.143
		c-2.481,0.054-3.264-0.782-3.176-3.225c0.165-4.543,0.047-9.095,0.047-12.156c-8.048,7.256-16.586,14.953-25.235,22.752
		C607.339,304.338,608.403,304.111,609.299,303.975z"/>
	<path fill="#858689" d="M434.538,506.588c-2.096,0.045-3.167,0.451-3.19,2.896c-0.055,5.767,2.444,8.373,9.619,8.353
		c1.941-0.053,4.882-0.465,6.192-3.89c1.896-4.956,0.448-9.732-3.864-12.855c-1.714-1.241-3.585-2.305-5.128-3.729
		c-1.306-1.203-1.247-2.942-0.472-4.507c0.409-0.826,1.217-1.305,2.181-1.098c1.726,0.37,1.89,1.693,1.888,3.169
		c-0.004,2.512,1.951,1.645,3.278,1.805c1.535,0.185,2.281-0.492,2.389-2.078c0.253-3.681-2.026-6.506-5.766-7.021
		c-5.456-0.749-9.03,1.12-9.688,5.171c-0.697,4.296,0.3,7.808,4.381,10.208c2.178,1.284,4.911,2.223,5.684,5.1
		c0.425,1.585,0.512,3.277-0.602,4.648c-0.7,0.862-1.858,0.773-2.805,0.466c-2.008-0.646-1.418-2.449-1.349-3.818
		C437.391,507.316,436.701,506.541,434.538,506.588z"/>
	<path fill="#84868A" d="M514.078,517.276c1.909-0.006,2.689-0.616,2.633-2.597c-0.11-3.744-0.065-7.496-0.012-11.244
		c0.02-1.412-0.438-3.529,1.728-3.457c2.155,0.07,1.498,2.227,1.53,3.59c0.089,3.747,0.049,7.498,0.039,11.247
		c-0.004,1.697,0.729,2.484,2.502,2.436c1.553-0.044,2.665-0.254,2.635-2.215c-0.079-4.997,0.051-10.001-0.104-14.995
		c-0.104-3.307-2.271-4.934-5.298-4.109c-3.344,0.911-3.365-0.686-3.174-3.026c0.073-0.868-0.042-1.752,0.021-2.622
		c0.153-2.13-1.114-2.381-2.838-2.441c-1.915-0.064-2.295,0.838-2.267,2.498c0.074,3.998,0.023,7.998,0.024,11.998
		c0,4.123,0.082,8.25-0.034,12.369C511.409,516.698,512.172,517.282,514.078,517.276z"/>
	<path fill="#85868A" d="M569.121,510.48c-1.375-0.441-3.342-1.053-4.129,1.142c-0.371,1.027-0.68,1.97-1.979,1.702
		c-1.52-0.316-1.199-1.643-1.346-2.716c-0.36-2.615,1.229-2.734,3.196-2.72c5.375,0.039,5.048,0.965,5.151-5.274
		c0.056-3.194-0.701-5.737-4.121-6.639c-5.764-1.521-9.275,1.204-9.309,7.157c-0.006,1.124,0,2.248,0,3.371
		c0.012,0,0.024,0.001,0.043,0.003c0,1.998-0.183,4.016,0.04,5.99c0.407,3.612,2.899,5.034,6.233,5.225
		c3.113,0.18,5.779-0.677,6.818-3.973C570.057,512.683,570.684,510.984,569.121,510.48z M563.438,499.841
		c1.33-0.031,1.421,1.126,1.519,2.135c0.04,1.231-0.146,2.26-1.745,2.229c-1.102-0.021-1.59-0.585-1.529-1.63
		C561.752,501.343,561.684,499.882,563.438,499.841z"/>
	<path fill="#85868A" d="M468.709,502.998c-1.616,0.947-3.328,1.723-4.961,2.64c-3.18,1.789-2.479,4.869-2.453,7.689
		c0.02,1.89,0.738,3.787,2.635,4.083c3.319,0.517,6.643-0.842,10.061-0.418c1.147,0.142,0.709-1.344,0.724-2.137
		c0.04-2.248,0.015-4.497,0.015-6.746c-0.047,0-0.093,0-0.144,0.001c0-2.375-0.035-4.75,0.01-7.125
		c0.051-2.617-1.145-4.511-3.663-4.927c-2.91-0.481-6.164-1.097-8.379,1.646c-1.1,1.363-1.457,3.646,0.097,4.715
		c1.117,0.771,3.562,1.271,3.85-1.642c0.08-0.818,0.559-1.396,1.426-1.465c0.713-0.058,1.201,0.386,1.402,1.009
		C469.646,501.31,469.763,502.383,468.709,502.998z M469.58,509.92c0.126,1.834,0.068,3.604-2.076,3.732
		c-1.319,0.079-1.115-1.332-1.172-2.272c-0.104-1.729,0.355-3.479,2.162-3.737C470.186,507.401,469.321,509.193,469.58,509.92z"/>
	<path fill="#85868A" d="M536.999,507.941c3.668,0.477,5.598-0.605,4.688-4.059c-0.015-5.689-1.194-7.484-4.884-8.02
		c-4.483-0.655-7.601,0.814-8.265,4.365c-0.802,4.299-0.781,8.713,0.016,13.006c0.599,3.219,3.424,4.807,7.201,4.484
		c2.757-0.234,5.229-1.096,5.717-4.313c0.166-1.094,0.873-2.77-1.008-3.032c-1.266-0.177-3.094-1.009-3.697,1.236
		c-0.266,0.996-0.633,2.068-1.906,1.845c-1.383-0.242-1.402-1.473-1.565-2.627C532.845,507.635,534.938,507.67,536.999,507.941z
		 M534.973,499.789c1.445-0.125,1.737,1.023,1.853,1.869c-0.008,1.521-0.283,2.499-1.755,2.593
		c-1.521,0.097-1.854-0.777-1.813-2.061C533.297,500.982,533.643,499.903,534.973,499.789z"/>
	<path fill="#85868A" d="M449.512,496.686c-0.258,0.097-0.349,1.872-0.065,2.023c3.937,2.107,1.429,5.775,2.195,8.219
		c0,2.144-0.049,3.893,0.013,5.641c0.125,3.715,2.505,5.59,6.229,5.04c1.115-0.165,1.951-0.514,1.939-1.788
		c-0.008-0.949,0.313-2.19-1.123-2.371c-1.968-0.247-1.906-1.608-1.896-3.026c0.016-1.997-0.12-4.005,0.036-5.99
		c0.154-1.948-1.215-4.563,2.36-5.24c0.941-0.181,0.896-2.638,0.031-2.789c-3.598-0.64-2.356-3.276-2.362-5.22
		c-0.006-2.054-0.55-2.879-2.739-2.835c-2.016,0.041-2.554,0.813-2.53,2.688C451.627,493.109,452.472,495.587,449.512,496.686z"/>
	<path fill="#85868A" d="M488.938,499.178C488.938,499.179,488.938,499.179,488.938,499.178c1.635,0.596,2.398,1.533,2.287,3.492
		c-0.201,3.603-0.141,7.231,0.041,10.836c0.151,3.023,4.282,5.287,6.959,3.922c1.615-0.822,1.61-2.999,0.641-3.363
		c-3.797-1.434-2.555-4.467-2.449-6.903c0.126-2.883-1.665-6.44,2.314-8.418c0.567-0.284,0.544-2.064-0.25-2.282
		c-3.092-0.846-2.096-3.248-2.107-5.15c-0.013-1.919-0.326-2.962-2.631-2.978c-2.309-0.015-2.749,0.991-2.602,2.934
		c0.116,1.487,0.042,2.989,0.055,4.484C490.521,496.945,488.458,497.224,488.938,499.178z"/>
	<path fill="#B12F48" d="M657.045,289.669c6.236,0.021,10.98-4.547,11.068-10.657c0.086-6.019-4.748-10.922-10.813-10.967
		c-6.181-0.045-10.962,4.617-11.004,10.726C646.254,285.001,650.839,289.648,657.045,289.669z M650.135,273.931
		c2.161-3.348,6.464-4.703,10.159-3.201c3.91,1.59,5.919,5.566,5.106,10.088c-0.271,1.515-0.693,2.912-2.379,3.443l0,0
		c-0.139,0.32-0.274,0.641-0.411,0.961c-0.002,0.001-0.005,0.002-0.007,0.003c-3.544,3.247-7.156,3.279-10.963,0.101
		c0,0,0.001-0.001,0.001-0.002C648.231,281.911,647.677,277.74,650.135,273.931z"/>
	<path fill="#88898C" d="M491.195,495.751c-3.439,0.054-6.805,1.349-10.339,0.306c-1.68-0.496-3.097-0.041-3.033,2.4
		c0.138,5.464,0.104,10.934,0.009,16.402c-0.036,2.135,1.074,2.395,2.799,2.417c1.719,0.021,2.484-0.521,2.435-2.342
		c-0.093-3.351-0.003-6.71-0.022-10.063c-0.014-2.328,0.447-4.179,3.299-4.479c0.898-0.094,1.733-0.791,2.596-1.213
		c0,0,0-0.001,0-0.002C488.458,497.224,490.521,496.945,491.195,495.751z"/>
	<path fill="#89898D" d="M553.6,496.005c-2.378,1.132-4.559-0.071-6.816-0.03c-1.809,0.033-1.969,1.243-1.992,2.527
		c-0.051,2.613-0.016,5.229-0.016,7.842c-0.012,0-0.024,0-0.041,0c0,2.744,0.024,5.491-0.01,8.236
		c-0.021,1.826,0.645,2.709,2.643,2.699c1.989-0.013,2.609-0.819,2.552-2.701c-0.094-3.117-0.024-6.24-0.021-9.359
		c0.003-2.394,0.258-4.578,3.391-4.8c1.639-0.116,1.434-1.458,1.46-2.546C554.771,497.003,554.531,495.563,553.6,496.005z"/>
	<path fill="#86868A" d="M575.354,511.84c-1.951-0.343-2.66,0.551-2.559,2.459c0.08,1.521-0.135,2.946,2.165,2.974
		c2.063,0.022,2.88-0.656,2.78-2.761C577.661,512.845,577.561,511.488,575.354,511.84z"/>
	<path fill="#7F3747" d="M630.917,304.039c0,0-0.001,0.001-0.001,0.001c7.899,0.005,15.8,0.046,23.7-0.032
		c1.039-0.01,2.522,0.855,3.128-0.9c-0.002,0-0.004,0-0.007,0c-7.685,0.045-15.368,0.056-23.054,0.167
		C633.425,303.293,631.928,302.62,630.917,304.039z"/>
	<path fill="#B03A51" d="M534.834,364.203c1.575-2.323,1.498-5.002,1.342-7.845c-1.054,1.78-2.105,3.559-3.16,5.338
		c0.003,0,0.004,0,0.007,0C534.771,361.704,534.664,363.052,534.834,364.203z"/>
	<path fill="#B6B6B8" d="M679.456,437.543c-0.001,0.001-0.001,0.002-0.002,0.002c-0.503,0.981-1.486,0.531-2.243,0.751
		c3.17,1.292,6.502,1.726,9.89,1.937C684.652,438.998,682.162,437.955,679.456,437.543z"/>
	<path fill="#BC5267" d="M659.383,377.712c1.021-0.958,1.562-2.04,0.771-4.517c-1.161,1.495-1.915,2.467-2.667,3.435
		c-0.001,0.001-0.002,0.003-0.003,0.004C658.244,376.766,658.977,376.951,659.383,377.712z"/>
	<path fill="#B5334C" d="M661.448,278.244c1.924-1.942,0.421-5.108-2.457-5.546c-1.833-0.28-3.734-0.121-5.604-0.159
		c-0.646,3.683-0.185,7.395-0.257,11.092c-0.011,0.58,0.068,1.34,0.908,1.335c0.815-0.004,0.849-0.728,0.907-1.323
		c0.049-0.491-0.002-0.991,0.047-1.482c0.078-0.805-0.28-1.872,0.916-2.129c1.042-0.224,1.47,0.647,1.998,1.336
		c1.264,1.646,1.604,4.44,4.701,3.854c-0.001,0.001-0.003,0.002-0.004,0.003c0.002-0.001,0.005-0.002,0.007-0.003
		c0.137-0.32,0.272-0.641,0.411-0.961l0,0C660.844,282.702,658.242,281.477,661.448,278.244z M656.852,277.995
		c-1.507,0.114-1.951-0.748-1.81-2.091c0.181-1.685,1.478-1.378,2.539-1.359c1.198,0.022,2.222,0.377,2.253,1.871
		C659.41,278.024,658.059,277.904,656.852,277.995z"/>
</g>
</svg>
