<?xml version="1.0" encoding="utf-8"?>
<!-- Generator: Adobe Illustrator 16.0.0, SVG Export Plug-In . SVG Version: 6.00 Build 0)  -->
<!DOCTYPE svg PUBLIC "-//W3C//DTD SVG 1.1//EN" "http://www.w3.org/Graphics/SVG/1.1/DTD/svg11.dtd">
<svg version="1.1" id="Layer_1" xmlns="http://www.w3.org/2000/svg" xmlns:xlink="http://www.w3.org/1999/xlink" x="0px" y="0px"
	 width="216px" height="216px" viewBox="0 0 216 216" enable-background="new 0 0 216 216" xml:space="preserve">
<g>
	<path fill-rule="evenodd" clip-rule="evenodd" fill="#D67F22" d="M112.095,58.333c24.006,0.361,47.131,8.07,66.871,24.96
		c14.805,12.666,23.412,28.81,26.426,48.005c0.149,0.949-0.051,1.298-1.059,1.262c-1.829-0.064-3.662-0.049-5.491-0.004
		c-0.807,0.02-1.193-0.227-1.321-1.072c-3.652-24.079-17.366-41.092-37.724-53.309c-12.162-7.298-25.459-11.24-39.558-12.563
		c-18.447-1.73-36.283,0.579-53.177,8.421c-15.603,7.242-28.387,17.812-37.197,32.796c-4.432,7.539-7.072,15.732-8.426,24.344
		c-0.163,1.033-0.448,1.439-1.526,1.391c-1.771-0.08-3.551-0.063-5.324-0.005c-0.952,0.03-1.196-0.186-1.053-1.216
		c2.24-16.17,9.151-30.067,20.278-41.933c15.048-16.047,33.82-25.037,55.19-29.078C96.045,59.001,103.161,58.405,112.095,58.333z"/>
	<path fill-rule="evenodd" clip-rule="evenodd" fill="#D67F22" d="M79.524,116.193c-0.661,3.592,1.059,6.999-0.692,10.383
		c-1.082-1.773-0.619-3.942-2.113-5.299c-0.563,0.351-0.114,0.637-0.108,0.916c0.011,0.568,0.502,1.315-0.271,1.616
		c-0.656,0.255-1.088-0.352-1.442-0.873c-0.214-0.313-0.453-0.609-0.762-1.021c-0.036,1.021,0.697,1.789,0.37,2.684
		c-0.919,0.521-1.656-2.307-2.553-0.06c-1.006-0.667-1.092-1.945-2.095-2.693c0.433,2.063,0.33,1.627-1.602,2.083
		c-2.498,0.59-3.968-0.828-5.937-1.903c0.524,1.184,1.866,1.987,1.201,3.488c-2.587-1.204-2.594-4.096-4.15-6.286
		c-0.041,0.768-0.056,1.28-0.098,1.791c-0.041,0.498-0.086,1.145-0.664,1.185c-0.749,0.051-0.553-0.69-0.584-1.12
		c-0.251-3.449-0.004-6.862,0.815-10.228c0.786-3.226,1.608-6.442,2.35-9.678c0.181-0.787,0.579-1.244,1.241-1.63
		c1.315-0.765,2.268-1.985,3.841-2.506c1.138-0.377,1.726-1.488,0.724-2.935c-1.527-2.203-2.093-4.803-1.815-7.443
		c0.354-3.368,2.78-5.202,5.626-6.397c2.638-1.107,5.107-0.472,7.201,1.486c2.186,2.045,2.864,4.725,3.138,7.7
		c0.674-1.716,2.011-1.496,3.35-1.441c2.604,0.107,5.217,0.148,7.682,1.124c1.495,0.591,2.812,1.396,2.631,3.349
		c-0.043,0.469,0.225,0.719,0.593,1.049c0.739,0.661,0.786,1.871,0.025,2.257c-1.396,0.706-0.918,1.663-0.5,2.386
		c1.924,3.333,1.912,5.889-0.811,8.88c-3.208,3.525-4.613,7.872-5.998,12.209c-0.5,1.563-1.533,1.908-2.663,2.297
		c-1.138,0.39-2.214-0.032-2.937-1.023C81.543,119.206,80.64,117.824,79.524,116.193z"/>
	<path fill-rule="evenodd" clip-rule="evenodd" fill="#D67F22" d="M144.962,122.004c-0.271,0.545-0.539,1.091-0.814,1.634
		c-0.547,1.07-1.119,1.402-1.676,0c-0.603,0.487-0.948,1.201-1.752,1.279c-0.44-0.895,0.3-1.63,0.222-2.544
		c-0.792,0.493-0.995,1.969-2.071,1.576c-1.18-0.431,0.108-1.562-0.342-2.428c-1.714,1.298-1.039,3.554-2.221,5.238
		c-1.643-3.351-0.063-6.774-0.621-10.263c-1.087,1.072-1.542,2.219-2.22,3.208c-1.676,2.453-2.786,2.711-5.428,1.362
		c-0.519-0.265-0.706-0.556-0.823-1.088c-0.833-3.771-2.771-7.101-4.272-10.605c-0.278-0.651-0.894-0.968-1.341-1.45
		c-1.681-1.811-2.782-3.856-2.723-6.4c0.026-1.095,0.436-2.023,1.144-2.869c0.774-0.924,1.018-1.892-0.091-2.801
		c-0.148-0.121-0.236-0.354-0.285-0.552c-0.385-1.563,1.186-4.927,2.679-5.67c3.261-1.619,6.817-1.24,10.279-1.441
		c0.771-0.045,0.786,0.997,1.541,1.437c0.185-1.011,0.122-1.983,0.357-2.912c1.194-4.706,4.91-7.499,8.873-6.592
		c4.632,1.06,7.357,5.278,6.419,10.006c-0.28,1.414-0.742,2.779-1.491,4.034c-0.951,1.593-0.557,2.763,1.14,3.452
		c2.632,1.07,4.467,2.686,5.034,5.731c0.738,3.965,2.073,7.816,2.557,11.843c0.295,2.457,0.362,4.916-0.112,7.51
		c-1.501-0.84-0.831-2.12-1.153-3.265c-0.79,0.991-1.031,2.139-1.521,3.152c-0.484,1.001-0.93,2.018-1.859,2.711
		c-0.228,0.17-0.511,0.396-0.733,0.212c-0.159-0.134-0.186-0.497-0.173-0.753c0.037-0.776,0.589-1.345,1.259-2.363
		c-1.043,0.572-1.724,0.819-2.246,1.256c-1.607,1.337-3.349,0.35-4.988,0.268c-1.118-0.058-0.024-1.059-0.208-1.602
		c0.086-0.763,0.393-1.45,0.851-2.389C145.641,120.775,145.57,121.547,144.962,122.004z"/>
	<path fill-rule="evenodd" clip-rule="evenodd" fill="#FFFFFF" d="M17.762,151.023c-0.534,2.481-1.145,4.95-1.566,7.449
		c-0.187,1.108-0.686,1.381-1.658,1.258c-0.439-0.055-0.882-0.075-1.323-0.11c-3.646-0.281-3.583-0.291-4.159-3.838
		c-0.984-6.066-2.021-12.125-3.123-18.171c-0.189-1.037,0.035-1.311,0.994-1.194c0.164,0.019,0.333,0,0.499-0.002
		c1.419-0.024,3.263-0.851,4.133,0.089c0.817,0.884,0.609,2.723,0.836,4.145c0.245,1.528,0.47,3.062,0.766,4.994
		c0.91-2.835,1.476-5.364,1.886-7.913c0.236-1.463,0.738-2.022,2.316-1.888c3.164,0.271,3.169,0.177,3.827,3.383
		c0.423,2.06,0.855,4.118,1.337,6.431c0.902-2.113,1.031-4.186,1.426-6.18c0.756-3.821,0.712-3.83,4.608-3.83
		c0.333,0,0.669,0.032,0.998-0.007c0.984-0.114,1.183,0.196,0.979,1.206c-1.448,7.166-2.833,14.344-4.199,21.526
		c-0.178,0.935-0.53,1.283-1.519,1.214c-1.655-0.116-3.72,0.518-4.871-0.261c-1.175-0.795-0.769-3.063-1.176-4.661
		c-0.299-1.175-0.483-2.379-0.719-3.57C17.955,151.07,17.859,151.047,17.762,151.023z"/>
	<path fill-rule="evenodd" clip-rule="evenodd" fill="#D67F22" d="M132.679,134.729c2.105-0.005,4.213,0.012,6.265,0.543
		c2.779,0.721,4.309,2.522,4.646,5.391c0.285,2.428,0.053,4.768-1.361,6.841c-0.416,0.611-0.376,1.02,0.028,1.612
		c1.036,1.515,1.893,3.131,2.009,5.02c0.163,2.653-0.78,4.331-3.2,5.437c-3.387,1.547-6.911,1.188-10.433,0.573
		c-0.616-0.108-0.716-0.536-0.732-1.1c-0.225-7.687-0.46-15.374-0.721-23.061c-0.03-0.892,0.176-1.357,1.175-1.271
		C131.124,134.782,131.904,134.729,132.679,134.729z"/>
	<path fill-rule="evenodd" clip-rule="evenodd" fill="#D67F22" d="M119.308,135.641c1.166,0.152,2.896-0.588,3.938,0.29
		c0.961,0.812,0.794,2.56,1.091,3.902c1.3,5.886,2.558,11.781,3.898,17.658c0.313,1.375,0.055,1.876-1.44,1.713
		c-1.314-0.143-2.664-0.112-3.985-0.004c-1.164,0.096-1.78-0.254-1.854-1.457c-0.024-0.381-0.16-0.755-0.251-1.131
		c-0.346-1.416-2.383-2.349-3.632-1.563c-0.766,0.483-0.675,1.463-0.787,2.257c-0.35,2.446-0.33,2.508-2.731,2.428
		c-1.516-0.052-3.576,0.741-4.394-0.367c-0.692-0.94,0.441-2.789,0.759-4.236c1.313-5.995,2.594-11.999,4.14-17.942
		c0.305-1.168,0.74-1.715,2.002-1.57C117.047,135.73,118.054,135.641,119.308,135.641z"/>
	<path fill-rule="evenodd" clip-rule="evenodd" fill="#D67F22" d="M153.93,154.148c0,1.357-0.033,2.718,0.013,4.074
		c0.026,0.8-0.169,1.139-1.071,1.245c-5.364,0.624-5.287,0.651-5.39-4.75c-0.11-5.814-0.344-11.63-0.607-17.44
		c-0.058-1.262,0.28-1.632,1.539-1.578c2.653,0.113,5.318-0.088,7.944,0.504c2.792,0.629,4.447,2.288,4.911,5.146
		c0.476,2.931,0.073,5.651-1.949,7.924c-0.528,0.593-0.289,0.967-0.047,1.446c1.148,2.271,2.271,4.558,3.478,6.798
		c0.573,1.065,0.315,1.423-0.839,1.5c-1.045,0.07-2.09,0.253-3.117,0.467c-0.873,0.182-1.198-0.433-1.56-0.962
		c-1.013-1.479-1.984-2.986-2.972-4.483C154.152,154.076,154.04,154.111,153.93,154.148z"/>
	<path fill-rule="evenodd" clip-rule="evenodd" fill="#D67F22" d="M62.983,147.54c0.038-3.286,0.752-6.374,2.8-9.028
		c2.742-3.555,6.517-3.804,9.71-0.682c3.932,3.845,5.443,10.69,3.463,15.689c-1.646,4.155-5.701,6.653-9.34,5.755
		c-2.34-0.577-3.759-2.237-4.87-4.216C63.568,152.962,62.991,150.349,62.983,147.54z"/>
	<path fill-rule="evenodd" clip-rule="evenodd" fill="#D67F22" d="M177.319,147.163c0-3.438,0.061-6.878-0.03-10.313
		c-0.035-1.373,0.479-1.654,1.73-1.618c3.879,0.114,7.761,0.14,11.643,0.146c0.992,0.002,1.478,0.158,1.484,1.353
		c0.02,3.78,0.076,3.781-3.729,4.071c-0.552,0.043-1.113,0.14-1.658,0.087c-1.376-0.135-1.841,0.336-1.694,1.785
		c0.105,1.045,0.395,1.351,1.385,1.235c1.21-0.141,2.432-0.168,3.645-0.285c0.802-0.076,1.144,0.223,1.011,1.028
		c-0.01,0.055-0.01,0.11-0.012,0.166c-0.109,4.07-0.114,4.122-4.132,3.775c-1.457-0.126-2.063,0.146-1.965,1.781
		c0.15,2.487,0.003,4.991,0.058,7.486c0.022,1.026-0.192,1.516-1.367,1.444c-1.714-0.104-3.441-0.08-5.158-0.008
		c-1.019,0.043-1.332-0.292-1.316-1.314c0.057-3.606,0.022-7.213,0.022-10.819C177.263,147.163,177.291,147.163,177.319,147.163z"/>
	<path fill-rule="evenodd" clip-rule="evenodd" fill="#D67F22" d="M46.366,148.448c-0.156-3.168,0.458-6.179,2.066-8.933
		c3.103-5.312,8.717-5.296,12.649-3.877c1.19,0.429,1.472,1.163,0.868,2.301c-0.44,0.83-0.788,1.709-1.159,2.575
		c-0.624,1.455-0.918,3.464-3.28,1.804c-0.225-0.158-0.666-0.103-0.978-0.026c-1.893,0.456-2.854,1.856-3.326,3.588
		c-0.557,2.048-0.648,4.119,1.077,5.723c1.363,1.267,3.051,1.367,4.647,0.565c1.209-0.608,1.75-0.475,1.989,0.892
		c0.151,0.865,0.489,1.699,0.727,2.551c0.653,2.341,0.661,2.369-1.639,3.286c-2.679,1.069-5.47,1.096-8.147,0.227
		c-3.956-1.284-5.035-4.667-5.481-8.35C46.286,150.009,46.366,149.224,46.366,148.448z"/>
	<path fill-rule="evenodd" clip-rule="evenodd" fill="#D67F22" d="M193.625,135.995c0.854-0.048,1.561,0.052,2.169-0.146
		c3.096-1.003,5.023,0.183,6.157,3.079c0.173,0.441,0.565,0.796,0.985,1.365c0.809-1.335,1.579-2.515,2.25-3.748
		c0.417-0.769,0.87-1.142,1.819-1.021c1.313,0.168,2.655,0.227,3.979,0.179c1.289-0.047,1.239,0.453,0.775,1.351
		c-1.551,2.999-3.057,6.021-4.632,9.007c-0.401,0.761-0.618,1.5-0.61,2.362c0.031,3.216-0.019,6.434,0.031,9.649
		c0.014,0.942-0.276,1.276-1.224,1.221c-1.599-0.096-3.675,0.498-4.677-0.297c-1.066-0.848-0.495-3.046-0.312-4.595
		c0.588-4.952-0.823-9.222-3.753-13.163C195.444,139.704,194.431,138.034,193.625,135.995z"/>
	<path fill-rule="evenodd" clip-rule="evenodd" fill="#D67F22" d="M173.803,147.634c0,3.551-0.031,7.103,0.02,10.651
		c0.014,0.985-0.226,1.394-1.286,1.347c-1.771-0.078-3.55-0.045-5.324-0.011c-0.78,0.016-1.235-0.107-1.226-1.064
		c0.081-7.319-0.12-14.641,0.173-21.959c0.03-0.784,0.29-1.048,1.078-1.023c1.661,0.051,3.331,0.101,4.986-0.016
		c1.418-0.099,1.627,0.541,1.603,1.757C173.758,140.754,173.803,144.195,173.803,147.634z"/>
	<path fill-rule="evenodd" clip-rule="evenodd" fill="#D67F22" d="M95.422,147.869c0-3.438,0.033-6.878-0.021-10.316
		c-0.016-0.974,0.221-1.403,1.264-1.407c1.047-0.004,2.118-0.094,3.134-0.335c1.261-0.3,1.483,0.224,1.546,1.334
		c0.262,4.656,0.089,9.31-0.046,13.962c-0.045,1.583,0.418,2.201,2.053,2.11c1.361-0.074,3.166-0.628,4.002,0.232
		c0.901,0.928,0.11,2.754,0.324,4.158c0.271,1.774-0.491,2.114-2.098,2.039c-2.767-0.13-5.55-0.144-8.315,0.006
		c-1.623,0.087-1.916-0.52-1.873-1.966C95.488,154.416,95.422,151.142,95.422,147.869z"/>
	<path fill-rule="evenodd" clip-rule="evenodd" fill="#D67F22" d="M87.296,144.466c0,2.438,0.054,4.878-0.025,7.313
		c-0.034,1.041,0.386,1.396,1.319,1.397c1.331,0.002,2.662,0.04,3.99-0.007c0.782-0.027,1.084,0.225,1.055,1.033
		c-0.052,1.44-0.064,2.885,0.003,4.322c0.042,0.914-0.333,1.109-1.161,1.1c-3.325-0.036-6.651-0.035-9.977-0.001
		c-0.838,0.009-1.166-0.228-1.163-1.122c0.03-7.039,0.027-14.078,0.002-21.117c-0.003-0.815,0.184-1.19,1.088-1.219
		c1.213-0.037,2.424-0.222,3.629-0.396c0.854-0.122,1.217,0.141,1.205,1.049c-0.036,2.548-0.013,5.098-0.013,7.646
		C87.265,144.465,87.281,144.465,87.296,144.466z"/>
	<path fill-rule="evenodd" clip-rule="evenodd" fill="#FFFFFF" d="M32.86,150.849c0-2.495,0.039-4.99-0.018-7.482
		c-0.024-1.023,0.178-1.479,1.354-1.427c2.323,0.104,4.655,0.065,6.982,0.014c0.868-0.02,1.116,0.25,1.143,1.125
		c0.109,3.559,0.143,3.562-3.4,3.819c-0.653,0.048-1.321-0.109-1.244,0.994c0.066,0.949,0.265,1.471,1.334,1.303
		c0.433-0.068,0.897,0.056,1.326-0.023c1.506-0.281,1.751,0.38,1.803,1.784c0.062,1.683-0.403,2.215-2.077,2.057
		c-0.693-0.065-2.061-0.768-2.043,0.987c0.006,0.577,0.105,0.99,0.815,0.901c0.164-0.021,0.332-0.005,0.499-0.002
		c3.451,0.063,3.415,0.063,3.376,3.636c-0.01,0.927-0.233,1.242-1.195,1.217c-2.493-0.064-4.989-0.064-7.482,0
		c-0.988,0.025-1.208-0.346-1.19-1.254C32.894,155.948,32.86,153.397,32.86,150.849z"/>
	<path fill-rule="evenodd" clip-rule="evenodd" fill="#D78025" d="M102.831,98.249c0.302-0.85,0.518-1.457,0.734-2.064
		c-0.43-0.398-0.864,0.108-1.502-0.16c1.699-1.332,2.053-2.692-0.274-4.021c2.873,1.733,2.703-1.147,3.799-2.145
		c0.611,0.784-0.046,2.047,0.577,2.417c0.537,0.318,1.542-0.153,2.846-0.354c-2.052,2.024-2.331,4.058-1.233,6.307
		c-0.824-0.641-1.57-1.613-2.495-1.832C104.254,96.153,104.009,97.739,102.831,98.249z"/>
	<path fill-rule="evenodd" clip-rule="evenodd" fill="#D46E22" d="M99.906,95.891c-0.965,0.1-1.598,0.103-1.615-1.104
		c-0.017-1.185,0.467-1.372,1.472-1.362c0.923,0.009,1.438,0.151,1.403,1.259C101.134,95.708,100.819,96.158,99.906,95.891z"/>
	<path fill-rule="evenodd" clip-rule="evenodd" fill="#D46E22" d="M110.587,95.895c-0.956,0.078-1.628,0.135-1.641-1.093
		c-0.014-1.163,0.428-1.399,1.454-1.377c0.903,0.02,1.461,0.116,1.418,1.243C111.78,95.667,111.512,96.168,110.587,95.895z"/>
	<path fill-rule="evenodd" clip-rule="evenodd" fill="#D46E22" d="M115.721,95.878c-1.108,0.224-1.409-0.187-1.443-1.217
		c-0.045-1.331,0.739-1.185,1.592-1.227c0.907-0.045,1.265,0.239,1.277,1.208C117.163,95.815,116.684,96.146,115.721,95.878z"/>
	<path fill-rule="evenodd" clip-rule="evenodd" fill="#ECC59C" d="M144.962,122.004c0.327-0.732,0.655-1.467,0.982-2.199
		c0.169,0.968-0.16,1.763-0.646,2.511C145.186,122.211,145.074,122.107,144.962,122.004z"/>
	<path fill-rule="evenodd" clip-rule="evenodd" fill="#FEFDFD" d="M91.256,102.575c0.476-2.094,0.337-4.039,0.611-5.939
		c0.22-1.532-0.266-2.535-1.583-3.285c-1.128-0.642-2.288-1.114-3.591-1.165c-2.095-0.081-2.857,0.492-3.397,2.54
		c-0.452,1.712-0.774,3.45-1.107,5.188c-0.243,1.273,0.299,1.872,1.29,2.334c0.798,0.373,1.613,0.711,2.405,1.098
		c0.24,0.117,0.478,0.343,0.335,0.664c-0.141,0.318-0.434,0.271-0.709,0.197c-2.222-0.599-3.546-2.45-5.249-3.771
		c-0.112-0.087-0.226-0.385-0.2-0.405c1.827-1.416,1.083-3.669,1.749-5.467c0.548-1.481,0.663-3.127,0.937-4.707
		c0.127-0.733,0.32-1.187,1.255-1.134c3.146,0.175,5.972,1.59,8.998,2.213c0.531,0.109,0.498,0.509,0.447,0.909
		c-0.408,3.234-0.815,6.468-1.228,9.701C92.163,101.955,91.948,102.258,91.256,102.575z"/>
	<path fill-rule="evenodd" clip-rule="evenodd" fill="#FEFCFB" d="M68.335,101.955c-0.395-0.576-0.6-1.292-1.343-1.805
		c0.753,6.827,4.939,12.225,6.747,18.535c-0.715-1.367-1.439-2.729-2.142-4.103c-0.706-1.379-1.413-2.759-2.08-4.157
		c-1.476-3.097-2.871-6.233-4.415-9.296c-0.626-1.243-0.171-1.839,0.871-2.316c1.292-0.592,2.771-0.926,3.29-2.539
		c0.042-0.129,0.365-0.258,0.54-0.238c1.463,0.162,2.968,0.068,4.41,0.661c-1.013,0.188-1.869,0.526-2.296,1.607
		c-0.61-0.438-0.527-1.438-1.685-1.505c0.609,4.86,3.436,8.893,4.605,13.474c-2.315-3.496-3.695-7.503-6.077-11.232
		c-0.41,1.135-0.129,2.033-0.003,2.927C68.611,102.108,68.471,102.104,68.335,101.955z"/>
	<path fill-rule="evenodd" clip-rule="evenodd" fill="#FEFEFD" d="M89.833,102.553c-0.176-0.511-0.3-0.847-0.409-1.188
		c-0.239-0.754-0.455-1.431-1.497-1.472c-1.019-0.04-1.209,0.595-1.357,1.308c-0.188,0.911-0.629,0.719-1.314,0.513
		c-1.55-0.467-2.06-1.33-1.576-2.895c0.422-1.366,0.563-2.817,1.225-4.114c0.176-0.344,0.351-0.69,0.549-1.022
		c0.373-0.624,0.875-0.351,1.293-0.106c1.227,0.714,3.532,0.063,3.746,1.681c0.282,2.136-0.684,4.374-0.261,6.624
		C90.259,102.03,90.034,102.226,89.833,102.553z"/>
	<path fill-rule="evenodd" clip-rule="evenodd" fill="#FDFBF8" d="M64.067,112.564c-0.483-0.581-0.88-1.286-1.828-1.27
		c-0.242,0.651,0.226,1.15,0.297,1.766c-0.5,0.255-0.896-0.741-1.345-0.255c-0.384,0.417-0.009,0.951,0.135,1.407
		c0.16,0.506,0.401,0.985,0.524,1.541c-0.408-0.725-1.623-0.603-1.714-1.397c-0.089-0.779,0.286-1.611,0.451-2.422
		c0.731-3.592,1.635-7.135,3.022-10.989c0.586,1.319,1.02,2.298,1.454,3.277c0.11,0.368-0.065,0.455-0.389,0.394
		c-0.348-0.396-0.696-0.792-1.199-1.364c-0.387,1.507,0.051,2.551,0.42,3.62c0.094,0.271,0.92,0.973-0.398,0.842
		c-0.634-0.063-0.471,0.876-0.418,1.372c0.124,1.166,0.819,2.134,1.25,3.195c0.062,0.079,0.107,0.166,0.074,0.223
		C64.323,112.648,64.192,112.609,64.067,112.564z"/>
	<path fill-rule="evenodd" clip-rule="evenodd" fill="#FDFBF9" d="M72.551,93.472c0.167-0.07,0.301-0.153,0.446-0.184
		c2.926-0.618,2.924-0.616,2.762-3.584c-0.01-0.192,0.052-0.389,0.08-0.584c0.686,0.223,1.142,0.307,1.089-0.748
		c-0.063-1.281,0.131-2.768-1.311-3.223c-0.821-0.259-1.259-0.766-1.797-1.229c-0.786-0.677-0.608-1.198,0.412-1.436
		c1.274-0.297,2.195,0.271,2.79,1.292c1.486,2.555,1.701,5.246,0.396,7.923C76.51,93.564,74.32,94.297,72.551,93.472z"/>
	<path fill-rule="evenodd" clip-rule="evenodd" fill="#FDFCFA" d="M79.491,93.664c0.634,1.59,0.143,2.987-0.006,4.385
		c-0.033,0.306-0.155,0.747-0.607,0.524c-1.052-0.515-1.93-1.272-2.489-2.306c-0.278-0.514,0.304-0.643,0.616-0.759
		C77.949,95.154,78.693,94.534,79.491,93.664z"/>
	<path fill-rule="evenodd" clip-rule="evenodd" fill="#FBF6F0" d="M69.573,103.679c2.019,3.276,3.548,6.769,4.605,10.474
		c-1.963-3.232-3.57-6.632-4.872-10.179C69.125,103.631,69.309,103.62,69.573,103.679z"/>
	<path fill-rule="evenodd" clip-rule="evenodd" fill="#F9F0E5" d="M80.016,108.789c1.002,1.969,1.737,4.034,2.346,6.371
		C80.799,113.291,79.946,111.039,80.016,108.789z"/>
	<path fill-rule="evenodd" clip-rule="evenodd" fill="#F9EEE2" d="M86.738,115.893c-0.182-1.207-0.428-2.182,0.957-2.559
		c0.692-0.189,0.694-1.063,1.247-1.734C88.85,113.492,87.951,114.674,86.738,115.893z"/>
	<path fill-rule="evenodd" clip-rule="evenodd" fill="#F8EDE0" d="M93.52,105.443c-0.268,1.761-1.515,1.989-2.486,2.755
		c-0.023-0.986-0.034-1.794-0.429-2.689C91.5,107.153,92.378,106.101,93.52,105.443z"/>
	<path fill-rule="evenodd" clip-rule="evenodd" fill="#F2D7BB" d="M64.675,104.616c0.129-0.131,0.259-0.263,0.389-0.394
		c1.302,2.143,2.336,4.413,3.079,6.831C66.987,108.907,65.831,106.762,64.675,104.616z"/>
	<path fill-rule="evenodd" clip-rule="evenodd" fill="#F9F0E5" d="M61.683,118.702c-0.887-0.766-2.985-0.858-1.739-2.924
		C60.843,116.546,61.174,117.669,61.683,118.702z"/>
	<path fill-rule="evenodd" clip-rule="evenodd" fill="#EECAA4" d="M81.791,107.972c0.883,1.704,1.636,3.461,1.93,5.416
		c-0.763-1.746-1.526-3.491-2.29-5.237C81.551,108.091,81.671,108.031,81.791,107.972z"/>
	<path fill-rule="evenodd" clip-rule="evenodd" fill="#FBF3EC" d="M85.182,108.01c-0.624-0.416-0.543-0.922-0.728-1.304
		c-0.168-0.347-0.3-0.765,0.076-1.05c0.12-0.091,0.421,0.009,0.62,0.078c0.452,0.157,0.53,0.529,0.431,0.94
		C85.479,107.092,85.335,107.501,85.182,108.01z"/>
	<path fill-rule="evenodd" clip-rule="evenodd" fill="#FAF2E9" d="M70.194,84.257c1.298,0.766,1.817,1.748,2.283,2.777
		C71.57,86.392,70.565,85.839,70.194,84.257z"/>
	<path fill-rule="evenodd" clip-rule="evenodd" fill="#F9EFE4" d="M77.277,117.803c-0.429-0.844-1.115-1.602-0.941-2.837
		C77.277,115.871,77.615,116.735,77.277,117.803z"/>
	<path fill-rule="evenodd" clip-rule="evenodd" fill="#F3DBC1" d="M89.534,107.76c-0.43-0.592-0.814-1.096-1.169-1.619
		c-0.189-0.278-0.659-0.602-0.092-0.912c0.398-0.217,0.573,0.183,0.682,0.469C89.193,106.333,89.688,106.9,89.534,107.76z"/>
	<path fill-rule="evenodd" clip-rule="evenodd" fill="#F4DDC5" d="M71.536,83.108c1.092,0.734,1.408,1.512,1.686,2.316
		C72.537,84.905,71.819,84.411,71.536,83.108z"/>
	<path fill-rule="evenodd" clip-rule="evenodd" fill="#FAF0E5" d="M87.704,106.935c0.453,0.481,0.75,0.994,0.882,1.665
		C87.189,108.047,87.189,108.047,87.704,106.935z"/>
	<path fill-rule="evenodd" clip-rule="evenodd" fill="#F6E4D1" d="M95.241,101.432c-1.011-0.543-0.865-1.251-1.036-2.137
		C95.128,99.907,95.233,100.525,95.241,101.432z"/>
	<path fill-rule="evenodd" clip-rule="evenodd" fill="#EECCA8" d="M81.828,104.659c-0.79-0.577-0.908-1.283-1.068-1.964
		C81.339,103.123,81.851,103.592,81.828,104.659z"/>
	<path fill-rule="evenodd" clip-rule="evenodd" fill="#EFCEAB" d="M64.067,112.564c0.087-0.096,0.176-0.189,0.263-0.284
		c0.575,0.614,0.814,1.358,0.925,2.304C64.51,114,64.347,113.248,64.067,112.564z"/>
	<path fill-rule="evenodd" clip-rule="evenodd" fill="#F0D0AF" d="M69.573,103.679c-0.089,0.098-0.178,0.197-0.266,0.295
		c-0.543-0.568-0.726-1.309-0.972-2.02c0.14,0.004,0.28,0.008,0.421,0.013C69.029,102.538,69.301,103.108,69.573,103.679z"/>
	<path fill-rule="evenodd" clip-rule="evenodd" fill="#F2D6BA" d="M93.447,102.355c0.199,0.723,0.322,1.217-0.056,1.769
		C92.78,103.575,92.745,103.082,93.447,102.355z"/>
	<path fill-rule="evenodd" clip-rule="evenodd" fill="#FEFDFD" d="M123.843,102.676c-0.792-0.273-0.86-0.7-0.918-1.147
		c-0.382-3.012-0.735-6.028-1.178-9.032c-0.141-0.96,0.035-1.368,1.073-1.558c2.39-0.437,4.612-1.54,7.033-1.888
		c2.223-0.32,2.313-0.19,2.701,1.987c0.492,2.773,1.098,5.526,1.647,8.289c0.064,0.323,0.045,0.646,0.52,0.69
		c0.821,0.076,0.343,0.53,0.112,0.701c-1.651,1.223-2.89,3.022-5.007,3.603c-0.313,0.086-0.648,0.334-0.865-0.073
		c-0.209-0.396,0.136-0.627,0.419-0.767c0.741-0.366,1.504-0.688,2.263-1.018c1.031-0.449,1.526-1.122,1.324-2.34
		c-0.342-2.076-0.828-4.112-1.365-6.143c-0.324-1.224-1.339-1.461-2.295-1.567c-2.163-0.238-3.988,0.626-5.59,2.039
		c-0.489,0.432-0.438,0.952-0.432,1.516C123.313,98.165,123.497,100.351,123.843,102.676z"/>
	<path fill-rule="evenodd" clip-rule="evenodd" fill="#FDFCFA" d="M140.67,114.802c1.258-3.42,2.44-6.808,4.332-9.887
		c1.009-1.643,1.965-3.335,1.428-5.692c-2.293,3.491-3.592,7.26-5.782,10.866c-0.133-1.239,0.386-2.022,0.712-2.825
		c1.12-2.766,2.471-5.442,3.217-8.349c0.153-0.598,0.759-1.534,0.106-1.784c-0.896-0.344-0.824,0.929-1.346,1.438
		c-0.514-0.988-1.239-1.658-2.511-1.452c1.508-1.1,3.204-0.665,4.802-0.825c0.848,2,3.035,2.216,4.503,3.389
		c0.36,0.288,0.339,0.622,0.158,1.03c-2.726,6.152-5.69,12.186-8.967,18.075c1.867-6.212,6.066-11.55,6.659-18.25
		C145.069,105.061,143.737,110.408,140.67,114.802z"/>
	<path fill-rule="evenodd" clip-rule="evenodd" fill="#FEFDFD" d="M125.376,102.556c-0.605-0.322-0.768-1.035-0.639-1.291
		c0.785-1.557,0.17-3.029-0.123-4.515c-0.27-1.359-0.005-2.276,1.584-2.353c0.218-0.011,0.435-0.082,0.647-0.142
		c3.013-0.849,3.121-0.796,4.02,2.261c0.233,0.792,0.324,1.631,0.597,2.408c0.577,1.653-0.062,2.538-1.644,3.032
		c-0.689,0.214-1.106,0.361-1.245-0.574c-0.095-0.646-0.31-1.258-1.239-1.24c-0.878,0.017-1.321,0.391-1.529,1.193
		C125.7,101.738,125.53,102.123,125.376,102.556z"/>
	<path fill-rule="evenodd" clip-rule="evenodd" fill="#FDFCFA" d="M149.842,104.916c0.521-1.121,1.042-2.241,1.731-3.728
		c1.592,4.555,2.665,8.794,3.402,13.116c0.176,1.033-1.054,0.718-1.496,1.245c0.167-0.865,0.905-1.652,0.335-2.487
		c-0.283-0.413-0.702,0.335-1.151,0.252c-0.011-0.61,0.479-1.139,0.225-1.782c-0.8-0.126-1.136,0.542-1.635,0.909
		c-0.176-0.159-0.202-0.341-0.079-0.544c0.321-0.938,0.728-1.86,0.929-2.825c0.103-0.491,0.272-1.398-0.854-1.129
		c-0.079,0.019-0.166,0.006-0.249,0.009c0.05-0.206,0.081-0.418,0.152-0.615c0.402-1.141,0.954-2.252,0.636-3.633
		c-0.784,0.294-1.116,1.025-1.622,1.558C149.868,105.322,149.691,105.271,149.842,104.916z"/>
	<path fill-rule="evenodd" clip-rule="evenodd" fill="#FDFBF9" d="M142.636,93.89c-3.238,0.372-4.845-0.756-5.505-3.728
		c-0.382-1.722-0.204-3.394,0.393-5.037c0.229-0.63,0.546-1.206,1.015-1.69c0.771-0.795,1.686-1.011,2.719-0.63
		c0.227,0.083,0.655,0.145,0.558,0.484c-0.254,0.898-0.987,1.655-1.717,1.887c-0.969,0.308-1.517,0.81-1.84,1.652
		c-0.261,0.677,0.692,1.407-0.028,2.113c-0.03,0.029,0.064,0.274,0.109,0.277c1.681,0.093,0.78,1.318,0.888,2.068
		c0.17,1.198,0.485,2.158,2.002,2.049C141.69,93.302,142.233,93.282,142.636,93.89z"/>
	<path fill-rule="evenodd" clip-rule="evenodd" fill="#FDFBF8" d="M135.635,94.057c0.787,0.227,1.091,1.055,1.849,1.353
		c0.481,0.189,1.616,0.224,1.232,1.098c-0.485,1.107-1.493,1.888-2.657,2.346c-0.249,0.098-0.362-0.198-0.371-0.418
		C135.63,96.982,134.866,95.535,135.635,94.057z"/>
	<path fill-rule="evenodd" clip-rule="evenodd" fill="#F9EFE4" d="M135.129,108.95c0.292,2.391-0.938,4.291-2.121,6.208
		C133.328,112.975,134.229,110.979,135.129,108.95z"/>
	<path fill-rule="evenodd" clip-rule="evenodd" fill="#F8EBDE" d="M124.561,105.712c-0.254,0.927-0.467,1.667-0.386,2.583
		c-1.033-0.588-2.197-0.852-2.459-2.207c0.758-0.344,1.015,0.411,1.504,0.508C123.829,106.716,123.985,106.05,124.561,105.712z"/>
	<path fill-rule="evenodd" clip-rule="evenodd" fill="#F9F0E5" d="M128.3,116.012c-1.083-1.173-1.941-2.304-1.916-3.912
		C126.324,113.774,129.568,113.521,128.3,116.012z"/>
	<path fill-rule="evenodd" clip-rule="evenodd" fill="#FBF4ED" d="M155.081,115.868c0.523,1.41,0.523,1.41-1.877,3.196
		C153.792,118.063,154.382,117.06,155.081,115.868z"/>
	<path fill-rule="evenodd" clip-rule="evenodd" fill="#F2D9BD" d="M149.842,104.916c0.108,0.115,0.216,0.23,0.323,0.346
		c-0.941,1.785-1.881,3.57-2.822,5.355C147.879,108.571,148.718,106.676,149.842,104.916z"/>
	<path fill-rule="evenodd" clip-rule="evenodd" fill="#F8ECDF" d="M130.096,108.138c-0.373-0.739-0.955-1.458-0.154-2.187
		c0.176-0.16,0.563-0.391,0.712-0.144C131.197,106.709,130.477,107.389,130.096,108.138z"/>
	<path fill-rule="evenodd" clip-rule="evenodd" fill="#F9EDE0" d="M144.76,84.706c-0.12,1.152-0.816,1.787-2.086,2.473
		C143.226,85.891,143.841,85.167,144.76,84.706z"/>
	<path fill-rule="evenodd" clip-rule="evenodd" fill="#F5E1CB" d="M138.856,115.193c0.13,1.289-0.597,2.038-0.858,3.283
		C137.503,116.871,137.578,116.614,138.856,115.193z"/>
	<path fill-rule="evenodd" clip-rule="evenodd" fill="#EECCA7" d="M132.813,109.839c-0.244,1.303-0.73,2.475-1.478,3.537
		C131.572,112.086,132.072,110.9,132.813,109.839z"/>
	<path fill-rule="evenodd" clip-rule="evenodd" fill="#F8EBDD" d="M126.472,108.668c0.388-0.664,0.655-1.124,0.948-1.625
		C128.201,108.473,128.201,108.473,126.472,108.668z"/>
	<path fill-rule="evenodd" clip-rule="evenodd" fill="#F7E8D8" d="M125.671,107.797c-0.135-0.886,0.419-1.427,0.651-2.067
		c0.095-0.261,0.329-0.462,0.637-0.229c0.341,0.257,0.063,0.467-0.087,0.672C126.498,106.687,126.115,107.196,125.671,107.797z"/>
	<path fill-rule="evenodd" clip-rule="evenodd" fill="#EECAA5" d="M134.678,102.519c-0.468,1.095-0.564,1.816-1.358,2.282
		C133.288,103.864,133.715,103.307,134.678,102.519z"/>
	<path fill-rule="evenodd" clip-rule="evenodd" fill="#F7E9D9" d="M141.996,85.49c0.304-0.701,0.541-1.45,1.647-2.116
		C143.323,84.599,142.644,85.034,141.996,85.49z"/>
	<path fill-rule="evenodd" clip-rule="evenodd" fill="#F3DCC3" d="M151.174,111.896c0.026,0.182,0.053,0.363,0.079,0.544
		c-0.365,0.771-0.732,1.543-1.099,2.314C150.055,113.623,150.512,112.719,151.174,111.896z"/>
	<path fill-rule="evenodd" clip-rule="evenodd" fill="#F7E7D7" d="M120.627,99.784c0.265,0.667,0.137,1.219-0.439,1.835
		C119.654,100.742,120.264,100.28,120.627,99.784z"/>
	<path fill-rule="evenodd" clip-rule="evenodd" fill="#EFCEAC" d="M146.427,87.52c0.2,1.333-0.549,1.156-1.17,1.385
		C145.37,88.099,145.901,87.959,146.427,87.52z"/>
	<path fill-rule="evenodd" clip-rule="evenodd" fill="#FDF9F6" d="M137.745,142.793c-0.046,0.622-0.161,1.24-0.7,1.618
		c-0.3,0.21-0.716,0.41-1.055,0.375c-0.521-0.056-0.359-0.601-0.401-0.954c-0.079-0.658-0.14-1.321-0.16-1.984
		c-0.013-0.453-0.444-1.077,0.185-1.322c0.548-0.214,1.045,0.202,1.442,0.613C137.502,141.6,137.677,142.173,137.745,142.793z"/>
	<path fill-rule="evenodd" clip-rule="evenodd" fill="#FDFBF9" d="M135.698,153.5c-0.172-0.975,0.272-1.064,0.918-0.756
		c1.227,0.585,1.597,1.602,1.293,2.875c-0.182,0.762-0.674,1.35-1.492,1.258c-0.817-0.091-0.414-0.874-0.503-1.348
		C135.784,154.831,135.759,154.114,135.698,153.5z"/>
	<path fill-rule="evenodd" clip-rule="evenodd" fill="#FDFAF7" d="M119.785,147.413c-2.381,0.374-2.382,0.374-1.921-1.89
		c0.226-1.112,0.459-2.224,0.781-3.781C119.313,143.907,119.53,145.663,119.785,147.413z"/>
	<path fill-rule="evenodd" clip-rule="evenodd" fill="#FCF7F3" d="M153.183,143.143c0.167-0.507-0.469-1.278,0.18-1.607
		c0.557-0.282,1.156,0.198,1.544,0.705c0.663,0.869,0.83,1.809,0.24,2.78c-0.302,0.499-0.777,0.825-1.376,0.777
		c-0.423-0.034-0.41-0.453-0.439-0.777C153.277,144.413,153.234,143.805,153.183,143.143z"/>
	<path fill-rule="evenodd" clip-rule="evenodd" fill="#FEFEFE" d="M75.108,146.927c-0.027,1.675-0.38,3.158-1.588,4.295
		c-1.448,1.364-3.26,1.047-4.03-0.771c-0.894-2.109-0.912-4.324-0.21-6.477c0.716-2.194,2.758-2.566,4.397-0.907
		C74.759,144.162,75.046,145.544,75.108,146.927z"/>
</g>
</svg>
